<svg aria-hidden="true" style="position: absolute; width: 0; height: 0; overflow: hidden;" version="1.1"
  xmlns="http://www.w3.org/2000/svg" xmlns:xlink="http://www.w3.org/1999/xlink">
  <defs>
<symbol id="icon-best-place" viewBox="0 0 32 32">
<path d="M32 16c0 8.837-7.163 16-16 16s-16-7.163-16-16c0-8.837 7.163-16 16-16s16 7.163 16 16z"></path>
<path fill="#fafafa" d="M16.2 8c-3.341 0-6.058 2.651-6.058 5.91 0 1.073 0.493 2.227 0.514 2.276 0.159 0.369 0.474 0.942 0.7 1.278l4.154 6.14c0.17 0.252 0.422 0.396 0.69 0.396s0.52-0.144 0.69-0.396l4.154-6.141c0.227-0.336 0.541-0.909 0.7-1.278 0.021-0.048 0.514-1.202 0.514-2.276 0-3.259-2.718-5.91-6.058-5.91zM21.088 15.916c-0.142 0.331-0.435 0.864-0.638 1.165l-4.154 6.141c-0.082 0.121-0.108 0.121-0.19 0l-4.154-6.141c-0.203-0.301-0.496-0.834-0.638-1.165-0.006-0.014-0.458-1.076-0.458-2.005 0-2.876 2.398-5.215 5.346-5.215s5.345 2.339 5.345 5.215c0 0.93-0.453 1.995-0.458 2.006z"></path>
<path fill="#fafafa" d="M16.2 10.782c-1.769 0-3.207 1.404-3.207 3.129s1.439 3.129 3.207 3.129c1.769 0 3.207-1.404 3.207-3.129s-1.439-3.129-3.207-3.129zM16.2 16.345c-1.375 0-2.495-1.092-2.495-2.434s1.119-2.434 2.495-2.434c1.375 0 2.495 1.092 2.495 2.434s-1.119 2.434-2.495 2.434z"></path>
</symbol>
<symbol id="icon-best-quality" viewBox="0 0 32 32">
<path d="M32 16c0 8.837-7.163 16-16 16s-16-7.163-16-16c0-8.837 7.163-16 16-16s16 7.163 16 16z"></path>
<path fill="#fafafa" d="M19.57 18.312c0.084-0.033 0.171-0.059 0.262-0.074 0.946-0.153 1.598-1.048 1.454-1.991-0.065-0.325 0.040-0.771 0.353-1.087 0.672-0.68 0.671-1.786-0.006-2.471-0.278-0.281-0.408-0.681-0.347-1.078 0.144-0.946-0.506-1.841-1.456-1.996-0.39-0.064-0.732-0.312-0.913-0.664-0.439-0.854-1.492-1.197-2.352-0.763-0.354 0.179-0.776 0.179-1.131-0.001-0.857-0.432-1.911-0.090-2.35 0.763-0.181 0.352-0.522 0.6-0.918 0.665-0.944 0.154-1.595 1.049-1.45 2.002 0.060 0.39-0.071 0.79-0.353 1.076-0.672 0.68-0.673 1.786 0.006 2.473 0.277 0.281 0.407 0.681 0.347 1.076-0.145 0.947 0.507 1.843 1.453 1.996 0.090 0.015 0.178 0.040 0.261 0.073l-2.266 3.782c-0.116 0.194 0.066 0.431 0.283 0.369l1.832-0.52 0.406 1.86c0.048 0.222 0.343 0.269 0.459 0.075l2.584-4.314c0.179-0.040 0.366-0.040 0.545 0l2.584 4.314c0.115 0.193 0.41 0.147 0.459-0.075l0.406-1.86 1.832 0.52c0.217 0.062 0.399-0.175 0.283-0.369l-2.266-3.782zM13.038 23.080l-0.328-1.504c-0.031-0.141-0.173-0.227-0.313-0.187l-1.48 0.42 1.931-3.223c0.093 0.092 0.174 0.198 0.235 0.317 0.365 0.712 1.157 1.067 1.908 0.916l-1.953 3.261zM15.209 19.221c-0.612 0.31-1.367 0.065-1.68-0.547-0.253-0.494-0.732-0.842-1.28-0.931-0.676-0.109-1.142-0.749-1.038-1.432 0.083-0.545-0.098-1.104-0.493-1.504-0.48-0.486-0.48-1.277 0.006-1.768 0.388-0.392 0.57-0.952 0.486-1.505-0.103-0.676 0.362-1.316 1.042-1.427 0.546-0.089 1.024-0.437 1.277-0.929 0.313-0.609 1.066-0.856 1.682-0.545 0.495 0.25 1.086 0.25 1.582-0.001 0.613-0.309 1.366-0.064 1.68 0.546 0.253 0.492 0.731 0.84 1.282 0.93 0.675 0.11 1.14 0.75 1.036 1.433-0.084 0.546 0.099 1.106 0.492 1.503 0.481 0.486 0.481 1.276-0.006 1.77-0.67 0.679-0.479 1.55-0.485 1.502 0.103 0.677-0.363 1.317-1.039 1.427-0.548 0.089-1.026 0.436-1.28 0.93-0.313 0.611-1.067 0.856-1.681 0.546-0.495-0.25-1.086-0.25-1.582 0zM19.602 21.389c-0.14-0.039-0.282 0.047-0.313 0.187l-0.328 1.504-1.954-3.262c0.114 0.023 0.229 0.037 0.344 0.037 0.638 0 1.255-0.348 1.565-0.952 0.061-0.119 0.142-0.225 0.235-0.317l1.931 3.223-1.48-0.42z"></path>
<path fill="#fafafa" d="M19.68 13.926c0-2.029-1.651-3.68-3.68-3.68s-3.68 1.651-3.68 3.68c0 2.030 1.651 3.682 3.68 3.682s3.68-1.652 3.68-3.682zM16 17.109c-1.753 0-3.18-1.428-3.18-3.182 0-1.753 1.426-3.18 3.18-3.18s3.18 1.426 3.18 3.18c-0 1.755-1.426 3.182-3.18 3.182z"></path>
<path fill="#fafafa" d="M17.062 12.82l-1.685 1.685-0.439-0.439c-0.098-0.098-0.256-0.098-0.354 0s-0.098 0.256 0 0.354l0.616 0.616c0.098 0.098 0.256 0.098 0.354 0l1.862-1.862c0.098-0.098 0.098-0.256 0-0.354s-0.256-0.098-0.353 0z"></path>
</symbol>
<symbol id="icon-event-space" viewBox="0 0 32 32">
<path d="M16 0c-8.84 0-16 7.16-16 16s7.16 16 16 16 16-7.16 16-16-7.16-16-16-16zM15.84 10.52l-0.52 3-0.44 2.48c-0.080 0.48-0.28 0.92-0.6 1.28-0.040 0.080-0.16 0.12-0.24 0.12s-0.12-0.040-0.2-0.080c-0.12-0.12-0.12-0.28-0.040-0.4 0.24-0.28 0.4-0.64 0.48-1l0.4-2.16c-0.24-0.040-0.4-0.12-0.52-0.2-0.2-0.080-0.32-0.16-0.64-0.16s-0.48 0.040-0.64 0.16c-0.2 0.080-0.44 0.2-0.92 0.2-0.44 0-0.68-0.12-0.88-0.24-0.12-0.080-0.24-0.12-0.36-0.16l-0.56 1.48c-0.2 0.56-0.16 1.16 0.12 1.72 0.28 0.52 0.76 0.92 1.36 1.080 0.4 0.12 0.84 0.080 1.24-0.040 0.16-0.040 0.32 0.040 0.4 0.2 0.040 0.16-0.040 0.32-0.2 0.4-0.28 0.080-0.6 0.16-0.88 0.16-0.16 0-0.28 0-0.44-0.040l-1.080 3.96 1 0.28c0.24 0.080 0.44 0.2 0.6 0.44 0.12 0.2 0.16 0.48 0.080 0.72-0.12 0.44-0.52 0.72-0.92 0.72-0.080 0-0.16 0-0.24-0.040l-2.6-0.8c-0.24-0.080-0.44-0.24-0.6-0.44s-0.16-0.48-0.080-0.72c0.12-0.52 0.64-0.8 1.16-0.68l1 0.24 1.080-3.96c-0.64-0.24-1.16-0.72-1.44-1.28-0.36-0.68-0.4-1.48-0.16-2.2l0.64-1.68c0 0 0-0.040 0-0.040l0.48-1.24c0.040-0.16 0.24-0.24 0.4-0.16 0.16 0.040 0.24 0.24 0.16 0.4l-0.36 0.92c0.2 0.040 0.32 0.12 0.44 0.2 0.2 0.080 0.32 0.16 0.64 0.16s0.48-0.040 0.64-0.12c0.2-0.080 0.44-0.2 0.92-0.2 0.44 0 0.68 0.12 0.88 0.24 0.12 0.080 0.2 0.12 0.36 0.16l0.48-2.72c0-0.040 0-0.080-0.080-0.12l-3-0.8c-0.040 0-0.12 0-0.12 0.080l-0.36 1c-0.040 0.16-0.24 0.24-0.4 0.16-0.16-0.040-0.24-0.24-0.2-0.4l0.36-1c0.12-0.36 0.48-0.52 0.84-0.44l3 0.8c0.4 0.040 0.64 0.4 0.56 0.76zM23.96 21.96c-0.12 0.2-0.32 0.36-0.6 0.44l-2.56 0.68c-0.080 0.040-0.16 0.040-0.24 0.040-0.4 0-0.8-0.28-0.92-0.72-0.080-0.24-0.040-0.48 0.080-0.72s0.32-0.36 0.6-0.44l1-0.24-1.080-3.96c-0.16 0-0.28 0.040-0.4 0.040-0.52 0-1.040-0.16-1.48-0.44-0.64-0.4-1.080-1.080-1.24-1.84l-0.96-5.48c-0.080-0.36 0.16-0.72 0.52-0.8l3-0.8c0.36-0.080 0.72 0.080 0.84 0.44l1.36 3.68c0.040 0.16 0 0.32-0.16 0.4-0.16 0.040-0.32-0.040-0.4-0.16l-0.2-0.52c-0.2 0.080-0.4 0.080-0.56 0.080-0.2 0-0.36 0-0.64 0.16s-0.36 0.28-0.48 0.44c-0.12 0.2-0.28 0.4-0.68 0.64s-0.68 0.24-0.88 0.24c-0.12 0-0.24 0-0.4 0.040l0.28 1.56c0.12 0.6 0.44 1.12 0.96 1.44s1.12 0.4 1.72 0.28c0 0 0 0 0 0 0.6-0.16 1.080-0.56 1.36-1.080s0.32-1.12 0.12-1.72l-0.12-0.32c-0.040-0.16 0.040-0.32 0.2-0.4 0.16-0.040 0.32 0.040 0.4 0.16l0.12 0.32c0.28 0.72 0.2 1.52-0.16 2.2-0.32 0.6-0.84 1.040-1.44 1.28l1.080 3.96 1-0.28c0.52-0.12 1.040 0.16 1.16 0.68-0.040 0.24-0.080 0.48-0.2 0.72z"></path>
<path d="M18.44 12.32c0.28-0.16 0.36-0.28 0.48-0.44 0.12-0.2 0.28-0.4 0.68-0.64 0.4-0.2 0.68-0.24 0.88-0.24 0.12 0 0.24 0 0.36-0.040l-0.96-2.6c0-0.040-0.080-0.080-0.12-0.040l-3 0.8c-0.040 0-0.080 0.080-0.080 0.12l0.6 3.32c0.2-0.040 0.32-0.040 0.48-0.080 0.24-0.040 0.4-0.040 0.68-0.16z"></path>
<path  d="M23.16 21.12c-0.040 0-0.040 0-0.080 0l-1.28 0.36-1.28 0.32c-0.080 0.040-0.16 0.080-0.2 0.16s-0.080 0.16-0.040 0.28c0.040 0.2 0.24 0.28 0.44 0.24l2.56-0.68c0.080-0.040 0.16-0.080 0.2-0.16s0.080-0.16 0.040-0.28c-0.080-0.12-0.24-0.24-0.36-0.24zM21.76 21.48c0 0 0 0 0 0v0c0 0 0 0 0 0z"></path>
<path  d="M10.2 22.68l-1.28-0.32c-0.2-0.040-0.4 0.040-0.44 0.24-0.040 0.080 0 0.16 0.040 0.24s0.12 0.16 0.2 0.16l2.56 0.68c0.2 0.040 0.4-0.040 0.44-0.24 0.040-0.080 0-0.16-0.040-0.24s-0.12-0.16-0.2-0.16l-1.28-0.36z"></path>
<path fill="#fafafa" d="M15.32 9.72l-3-0.8c-0.36-0.080-0.72 0.080-0.84 0.44l-0.36 1c-0.040 0.16 0.040 0.32 0.2 0.4 0.16 0.040 0.32-0.040 0.4-0.16l0.36-1c0-0.040 0.080-0.080 0.12-0.080l3 0.8c0.040 0 0.080 0.080 0.080 0.12l-0.48 2.72c-0.12-0.040-0.24-0.080-0.36-0.16-0.2-0.12-0.44-0.24-0.88-0.24s-0.68 0.080-0.92 0.2c-0.2 0.080-0.32 0.16-0.64 0.12-0.32 0-0.44-0.080-0.64-0.16-0.12-0.080-0.24-0.12-0.44-0.2l0.36-0.92c0.040-0.16-0.040-0.32-0.16-0.4-0.16-0.040-0.32 0-0.4 0.16l-0.48 1.24c0 0 0 0.040 0 0.040l-0.64 1.68c-0.28 0.72-0.2 1.52 0.16 2.2 0.32 0.6 0.84 1.040 1.44 1.28l-1.12 4-1-0.24c-0.52-0.12-1.040 0.16-1.16 0.68-0.080 0.24-0.040 0.48 0.080 0.72s0.32 0.4 0.6 0.44l2.56 0.68c0.080 0 0.16 0.040 0.24 0.040 0.4 0 0.8-0.28 0.92-0.72 0.080-0.24 0.040-0.48-0.080-0.72s-0.32-0.4-0.6-0.44l-1-0.28 1.080-3.96c0.16 0.040 0.28 0.040 0.44 0.040 0.32 0 0.6-0.040 0.88-0.16 0.16-0.040 0.24-0.24 0.2-0.4s-0.24-0.24-0.4-0.2c-0.4 0.12-0.84 0.16-1.24 0.040-0.6-0.16-1.080-0.56-1.36-1.080s-0.32-1.16-0.12-1.72l0.56-1.48c0.16 0.040 0.24 0.080 0.36 0.16 0.2 0.12 0.44 0.24 0.88 0.24s0.68-0.080 0.92-0.2c0.2-0.080 0.32-0.16 0.64-0.16s0.44 0.080 0.64 0.16c0.12 0.080 0.32 0.16 0.52 0.2l-0.4 2.16c-0.080 0.36-0.24 0.72-0.48 1-0.12 0.12-0.080 0.32 0.040 0.4 0.040 0.040 0.12 0.080 0.2 0.080s0.16-0.040 0.24-0.12c0.32-0.36 0.52-0.8 0.6-1.28l0.44-2.48 0.52-3c0.12-0.24-0.12-0.6-0.48-0.68zM11.52 23c0.080 0.040 0.16 0.080 0.2 0.16s0.080 0.16 0.040 0.24c-0.040 0.2-0.24 0.32-0.44 0.24l-2.56-0.68c-0.080-0.040-0.16-0.080-0.2-0.16s-0.080-0.16-0.040-0.24c0.040-0.2 0.24-0.32 0.44-0.24l1.28 0.32 1.28 0.36z"></path>
<path fill="#fafafa" d="M21.76 21.48v0 0z"></path>
<path fill="#fafafa" d="M22.88 20.56l-1 0.28-1.080-3.96c0.64-0.24 1.16-0.72 1.44-1.28 0.36-0.68 0.4-1.48 0.16-2.2l-0.12-0.32c-0.040-0.16-0.24-0.24-0.4-0.16-0.16 0.040-0.24 0.24-0.2 0.4l0.12 0.32c0.2 0.56 0.16 1.16-0.12 1.72-0.28 0.52-0.76 0.92-1.36 1.080 0 0 0 0 0 0-0.6 0.16-1.2 0.080-1.72-0.28-0.52-0.32-0.84-0.84-0.96-1.44l-0.28-1.56c0.16-0.040 0.24-0.040 0.4-0.040 0.24 0 0.48 0 0.88-0.24s0.56-0.44 0.68-0.64c0.12-0.16 0.2-0.28 0.48-0.44s0.44-0.16 0.64-0.16c0.16 0 0.36 0 0.56-0.080l0.2 0.52c0.080 0.16 0.24 0.24 0.4 0.16 0.16-0.040 0.24-0.24 0.16-0.4l-1.36-3.68c-0.12-0.36-0.48-0.52-0.84-0.44l-3 0.8c-0.36 0.080-0.56 0.44-0.52 0.8l1.080 5.48c0.12 0.76 0.6 1.4 1.24 1.84 0.44 0.28 0.96 0.44 1.48 0.44 0.16 0 0.28 0 0.4-0.040l1.080 3.96-1 0.24c-0.24 0.080-0.44 0.24-0.6 0.44-0.12 0.2-0.16 0.48-0.080 0.72 0.12 0.44 0.52 0.72 0.92 0.72 0.080 0 0.16 0 0.24-0.040l2.56-0.68c0.24-0.080 0.44-0.24 0.6-0.44s0.16-0.48 0.080-0.72c-0.12-0.52-0.64-0.8-1.16-0.68zM16.76 9.2c0-0.040 0-0.080 0.080-0.12l3-0.8c0.040 0 0.12 0 0.12 0.040l0.96 2.6c-0.12 0.040-0.24 0.040-0.36 0.040-0.24 0-0.48 0-0.88 0.24-0.4 0.2-0.56 0.44-0.68 0.64-0.12 0.16-0.2 0.28-0.48 0.44s-0.44 0.16-0.64 0.16c-0.12 0-0.28 0-0.48 0.080l-0.64-3.32zM23.44 21.64c-0.040 0.080-0.12 0.12-0.2 0.16l-2.56 0.68c-0.2 0.040-0.4-0.080-0.44-0.24-0.040-0.080 0-0.2 0.040-0.28s0.12-0.16 0.2-0.16l1.28-0.32 1.28-0.36c0.040 0 0.080 0 0.080 0 0.16 0 0.32 0.12 0.36 0.24s0.040 0.2-0.040 0.28z"></path>
</symbol>
<symbol id="icon-free-wifi" viewBox="0 0 32 32">
<path d="M32 16c0 8.837-7.163 16-16 16s-16-7.163-16-16c0-8.837 7.163-16 16-16s16 7.163 16 16z"></path>
<path fill="#fafafa" d="M8.161 14.261c-0.203-0.187-0.216-0.504-0.028-0.707 0.992-1.075 2.17-1.923 3.5-2.518 1.377-0.617 2.847-0.929 4.367-0.929s2.99 0.313 4.367 0.929c1.33 0.595 2.508 1.443 3.5 2.518 0.187 0.203 0.175 0.519-0.028 0.707-0.096 0.089-0.218 0.133-0.339 0.133-0.135 0-0.269-0.054-0.368-0.161-1.833-1.986-4.432-3.125-7.133-3.125s-5.3 1.139-7.133 3.125c-0.187 0.203-0.504 0.216-0.707 0.028zM20.856 16.496c0.184 0.206 0.5 0.225 0.706 0.041s0.225-0.5 0.041-0.706c-1.422-1.6-3.465-2.517-5.603-2.517s-4.181 0.918-5.603 2.517c-0.184 0.206-0.165 0.522 0.041 0.706 0.095 0.085 0.214 0.126 0.332 0.126 0.138 0 0.275-0.057 0.374-0.168 1.233-1.387 3.003-2.182 4.856-2.182s3.623 0.795 4.856 2.182zM18.565 18.751c0.099 0.123 0.244 0.187 0.39 0.187 0.11 0 0.221-0.036 0.313-0.11 0.215-0.173 0.249-0.488 0.076-0.703-0.819-1.019-2.039-1.604-3.345-1.604s-2.525 0.585-3.345 1.604c-0.173 0.215-0.139 0.53 0.076 0.703s0.53 0.139 0.703-0.076c0.629-0.782 1.564-1.231 2.565-1.231s1.937 0.449 2.565 1.231zM16 19.727c0.597 0 1.083 0.486 1.083 1.083s-0.486 1.083-1.083 1.083c-0.597 0-1.083-0.486-1.083-1.083s0.486-1.083 1.083-1.083zM16 20.727c-0.045 0-0.083 0.038-0.083 0.083s0.038 0.083 0.083 0.083c0.045 0 0.083-0.038 0.083-0.083s-0.038-0.083-0.083-0.083z"></path>
</symbol>
<symbol id="icon-natural-coffee" viewBox="0 0 32 32">
<path d="M32 16c0 8.837-7.163 16-16 16s-16-7.163-16-16c0-8.837 7.163-16 16-16s16 7.163 16 16z"></path>
<path fill="#fafafa" d="M13.374 23.272c0.176 0 0.352-0.014 0.526-0.043 0.056-0.009 0.113-0.020 0.17-0.033 0.319-0.070 0.625-0.189 0.908-0.351 0.845-0.483 1.511-1.364 1.875-2.482 0.122-0.378 0.209-0.768 0.258-1.162 0.121 0.012 0.242 0.018 0.365 0.018 0.745 0 1.527-0.215 2.296-0.636 0.993-0.543 1.873-1.383 2.544-2.429 1.516-2.362 1.558-5.167 0.099-6.668-0.25-0.258-0.542-0.472-0.864-0.633-0.967-0.485-2.158-0.47-3.353 0.043-1.177 0.505-2.255 1.453-3.035 2.668-0.23 0.359-0.431 0.736-0.599 1.128-0.683-0.502-1.45-0.792-2.236-0.802-0.246-0.003-0.492 0.022-0.732 0.075-0.11 0.024-0.219 0.055-0.327 0.091-1.026 0.343-1.856 1.197-2.336 2.406-0.473 1.191-0.562 2.623-0.251 4.033 0.615 2.791 2.612 4.777 4.691 4.777zM22.223 10.022c0.504 0.623 0.771 1.491 0.756 2.476-0.017 1.122-0.402 2.325-1.083 3.386-0.626 0.975-1.443 1.757-2.363 2.26-0.784 0.429-1.606 0.624-2.344 0.561 1.454-1.142 2.432-2.781 2.747-4.603 0.252-1.447 0.952-2.778 2.003-3.804l0.284-0.277zM21.097 9.759l0.385-0.376c0.031 0.018 0.063 0.037 0.094 0.057 0.105 0.067 0.205 0.142 0.299 0.223l-0.285 0.278c-1.126 1.099-1.877 2.526-2.146 4.076-0.272 1.575-1.077 3.008-2.28 4.060-0.007-0.202-0.022-0.406-0.046-0.611 1.034-1.075 1.722-2.434 1.977-3.904 0.249-1.448 0.95-2.78 2.003-3.804zM15.584 11.834c1.383-2.155 3.689-3.268 5.411-2.674l-0.247 0.242c-1.128 1.098-1.88 2.525-2.146 4.076-0.215 1.241-0.762 2.401-1.584 3.355-0.011-0.056-0.022-0.111-0.035-0.167-0.331-1.504-1.071-2.787-2.016-3.644 0.168-0.414 0.375-0.812 0.617-1.188zM12.568 12.802l0.004-0.397c0.797 0.082 1.601 0.506 2.288 1.212 0.783 0.804 1.364 1.926 1.635 3.157 0.26 1.182 0.219 2.402-0.117 3.434-0.257 0.79-0.677 1.444-1.206 1.892 0.217-1.835-0.254-3.686-1.322-5.195-0.836-1.178-1.284-2.588-1.282-4.033 0-0.023 0-0.046 0-0.070h0zM11.592 13.017l0.005-0.537c0.035-0.009 0.071-0.018 0.106-0.026 0.122-0.027 0.245-0.045 0.369-0.055l-0.004 0.398c-0 0.025-0 0.051-0 0.076-0.003 1.548 0.478 3.059 1.374 4.322 1.010 1.426 1.448 3.18 1.226 4.914l-0.046 0.361c-0.15 0.077-0.307 0.141-0.469 0.189l0.034-0.272c0.039-0.313 0.059-0.627 0.059-0.942 0.003-1.549-0.477-3.060-1.374-4.323-0.85-1.198-1.299-2.635-1.282-4.104h0zM11.095 12.667l-0.003 0.346c-0.019 1.574 0.462 3.114 1.373 4.397 0.836 1.179 1.284 2.589 1.282 4.034-0 0.294-0.019 0.588-0.055 0.88l-0.055 0.436c-0.89 0.084-1.815-0.272-2.626-1.016-0.889-0.816-1.542-2.008-1.839-3.356-0.551-2.501 0.287-4.92 1.924-5.721z"></path>
<path fill="#fafafa"  d="M17.067 11.616c0.063 0 0.124-0.024 0.17-0.067 0.105-0.098 0.215-0.192 0.328-0.28 0.026-0.020 0.047-0.045 0.063-0.074s0.026-0.060 0.030-0.093c0.004-0.033 0.001-0.066-0.008-0.097s-0.024-0.061-0.044-0.087c-0.020-0.026-0.045-0.047-0.074-0.063s-0.060-0.026-0.093-0.030-0.066-0.001-0.097 0.008c-0.032 0.009-0.061 0.024-0.087 0.044-0.123 0.097-0.244 0.2-0.359 0.307-0.037 0.034-0.062 0.079-0.074 0.128s-0.007 0.1 0.011 0.147c0.018 0.047 0.050 0.087 0.092 0.115s0.091 0.043 0.141 0.043h0z"></path>
<path fill="#fafafa"  d="M15.79 13.151c0.029 0.015 0.061 0.023 0.094 0.026s0.066-0.002 0.097-0.012c0.031-0.010 0.060-0.027 0.085-0.049s0.045-0.048 0.060-0.077c0.159-0.32 0.351-0.623 0.573-0.904 0.021-0.026 0.036-0.055 0.046-0.087s0.012-0.065 0.009-0.098-0.014-0.065-0.030-0.094c-0.016-0.029-0.038-0.054-0.064-0.075s-0.056-0.036-0.088-0.045c-0.032-0.009-0.065-0.011-0.098-0.007s-0.065 0.015-0.093 0.031c-0.029 0.016-0.054 0.038-0.074 0.065-0.243 0.308-0.453 0.64-0.628 0.991-0.030 0.059-0.034 0.128-0.013 0.191s0.066 0.115 0.126 0.144z"></path>
<path fill="#fafafa"  d="M10.953 20.914c0.043 0.050 0.104 0.082 0.171 0.087s0.132-0.016 0.182-0.059c0.050-0.043 0.082-0.104 0.087-0.171s-0.016-0.132-0.059-0.182c-0.093-0.109-0.183-0.223-0.266-0.339-0.039-0.054-0.097-0.090-0.163-0.101s-0.132 0.005-0.186 0.044c-0.054 0.039-0.090 0.097-0.101 0.163s0.005 0.132 0.044 0.186c0.092 0.127 0.19 0.252 0.292 0.372z"></path>
<path fill="#fafafa" d="M11.57 21.532c0.297 0.255 0.621 0.48 0.964 0.669 0.029 0.016 0.060 0.026 0.093 0.030s0.066 0.001 0.097-0.008c0.032-0.009 0.061-0.024 0.087-0.045s0.047-0.046 0.063-0.075c0.016-0.029 0.026-0.060 0.029-0.093s0.001-0.066-0.009-0.097c-0.009-0.032-0.025-0.061-0.045-0.087s-0.046-0.047-0.075-0.063c-0.313-0.173-0.608-0.377-0.879-0.61-0.050-0.043-0.116-0.064-0.181-0.058s-0.127 0.036-0.17 0.086c-0.043 0.050-0.064 0.115-0.060 0.181s0.035 0.127 0.085 0.17v-0z"></path>
</symbol>
<symbol id="icon-online-reservation" viewBox="0 0 32 32">
<path d="M32 16c0 8.837-7.163 16-16 16s-16-7.163-16-16c0-8.837 7.163-16 16-16s16 7.163 16 16z"></path>
<path fill="#fafafa" d="M22 10.25h-1.25v-0.75c0-0.275-0.225-0.5-0.5-0.5h-0.5c-0.275 0-0.5 0.225-0.5 0.5v0.75h-6.75v-0.75c0-0.275-0.225-0.5-0.5-0.5h-0.5c-0.275 0-0.5 0.225-0.5 0.5v0.75h-1.25c-0.625 0-1.125 0.5-1.125 1.125v10.625c0 0.625 0.5 1.125 1.125 1.125h12.25c0.625 0 1.125-0.5 1.125-1.125v-10.625c0-0.625-0.5-1.125-1.125-1.125zM20.25 9.5v2h-0.5v-2h0.5zM12 9.5v2h-0.5v-2h0.5zM22.625 22c0 0.35-0.275 0.625-0.625 0.625h-12.25c-0.35 0-0.625-0.275-0.625-0.625v-8.625h13.5v8.625zM22.625 12.875h-13.5v-1.5c0-0.35 0.275-0.625 0.625-0.625h1.25v0.75c0 0.275 0.225 0.5 0.5 0.5h0.5c0.275 0 0.5-0.225 0.5-0.5v-0.75h6.75v0.75c0 0.275 0.225 0.5 0.5 0.5h0.5c0.275 0 0.5-0.225 0.5-0.5v-0.75h1.25c0.35 0 0.625 0.275 0.625 0.625v1.5z"></path>
<path fill="#fafafa" d="M17.125 14.5h-2.5c-0.137 0-0.25 0.112-0.25 0.25v2.5c0 0.138 0.113 0.25 0.25 0.25h2.5c0.137 0 0.25-0.112 0.25-0.25v-2.5c0-0.138-0.113-0.25-0.25-0.25zM16.875 17h-2v-2h2v2z"></path>
<path fill="#fafafa" d="M13 14.5h-2.5c-0.138 0-0.25 0.112-0.25 0.25v2.5c0 0.138 0.112 0.25 0.25 0.25h2.5c0.138 0 0.25-0.112 0.25-0.25v-2.5c0-0.138-0.112-0.25-0.25-0.25zM12.75 17h-2v-2h2v2z"></path>
<path fill="#fafafa" d="M21.25 14.5h-2.5c-0.138 0-0.25 0.112-0.25 0.25v2.5c0 0.138 0.112 0.25 0.25 0.25h2.5c0.138 0 0.25-0.112 0.25-0.25v-2.5c0-0.138-0.112-0.25-0.25-0.25zM21 17h-2v-2h2v2z"></path>
<path fill="#fafafa" d="M17.825 18.612c-0.1-0.1-0.25-0.1-0.35 0l-0.075 0.075v-0.025c0-0.137-0.113-0.25-0.25-0.25h-2.5c-0.138 0-0.25 0.113-0.25 0.25v2.5c0 0.138 0.112 0.25 0.25 0.25h2.5c0.137 0 0.25-0.112 0.25-0.25v-1.775l0.425-0.425c0.1-0.1 0.1-0.25 0-0.35zM16.9 20.912h-2v-0.987l0.8 0.812c0.050 0.050 0.112 0.075 0.175 0.075s0.125-0.025 0.175-0.075l0.837-0.837v1.012h0.013zM16.9 19.187l-1.025 1.013-0.7-0.7c-0.075-0.075-0.187-0.088-0.275-0.050v-0.525h2v0.262z"></path>
<path fill="#fafafa" d="M13 18.5h-2.5c-0.138 0-0.25 0.112-0.25 0.25v2.5c0 0.138 0.112 0.25 0.25 0.25h2.5c0.138 0 0.25-0.112 0.25-0.25v-2.5c0-0.138-0.112-0.25-0.25-0.25zM12.75 21h-2v-2h2v2z"></path>
<path fill="#fafafa" d="M21.95 18.7c-0.1-0.1-0.25-0.1-0.35 0l-0.1 0.1v-0.050c0-0.138-0.112-0.25-0.25-0.25h-2.5c-0.138 0-0.25 0.112-0.25 0.25v2.5c0 0.138 0.112 0.25 0.25 0.25h2.5c0.138 0 0.25-0.112 0.25-0.25v-1.75l0.45-0.45c0.1-0.1 0.1-0.25 0-0.35zM21 21h-2v-1.012l0.837 0.837c0.050 0.050 0.113 0.075 0.175 0.075s0.125-0.025 0.175-0.075l0.812-0.825v1zM21 19.3l-0.988 0.988-0.712-0.7c-0.087-0.087-0.2-0.1-0.3-0.037v-0.55h2v0.3z"></path>
</symbol>
<symbol id="icon-arrows-right" viewBox="0 0 32 32">
<path   d="M31.059 16c0 8.317-6.742 15.059-15.059 15.059s-15.059-6.742-15.059-15.059c0-8.317 6.742-15.059 15.059-15.059s15.059 6.742 15.059 15.059z"></path>
<path fill="#fffbf3" style="fill: var(--color2, #fffbf3)" d="M24.366 16l0.333 0.333c0.184-0.184 0.184-0.482 0-0.666l-0.333 0.333zM7.634 15.529c-0.26 0-0.471 0.211-0.471 0.471s0.211 0.471 0.471 0.471v-0.941zM17.34 22.36c-0.184 0.184-0.184 0.482 0 0.666s0.482 0.184 0.666 0l-0.666-0.666zM18.006 8.974c-0.184-0.184-0.482-0.184-0.666 0s-0.184 0.482 0 0.665l0.666-0.665zM24.366 15.529h-16.732v0.941h16.732v-0.941zM18.006 23.026l6.693-6.693-0.666-0.666-6.693 6.693 0.666 0.666zM24.699 15.667l-6.693-6.693-0.666 0.665 6.693 6.693 0.666-0.666zM30.588 16c0 8.057-6.531 14.588-14.588 14.588v0.941c8.577 0 15.529-6.953 15.529-15.529h-0.941zM16 30.588c-8.057 0-14.588-6.531-14.588-14.588h-0.941c0 8.577 6.953 15.529 15.529 15.529v-0.941zM1.412 16c0-8.057 6.531-14.588 14.588-14.588v-0.941c-8.577 0-15.529 6.953-15.529 15.529h0.941zM16 1.412c8.057 0 14.588 6.531 14.588 14.588h0.941c0-8.577-6.953-15.529-15.529-15.529v0.941z"></path>
</symbol>
<symbol id="icon-arrows-left" viewBox="0 0 32 32">
<path d="M0.941 16c0-8.317 6.742-15.059 15.059-15.059s15.059 6.742 15.059 15.059c0 8.317-6.742 15.059-15.059 15.059s-15.059-6.742-15.059-15.059z"></path>
<path fill="#fffbf3" style="fill: var(--color2, #fffbf3)" d="M7.634 16l-0.333-0.333c-0.184 0.184-0.184 0.482 0 0.666l0.333-0.333zM24.366 16.471c0.26 0 0.471-0.211 0.471-0.471s-0.211-0.471-0.471-0.471v0.941zM14.66 9.64c0.184-0.184 0.184-0.482 0-0.665s-0.482-0.184-0.665 0l0.665 0.665zM13.994 23.026c0.184 0.184 0.482 0.184 0.665 0s0.184-0.482 0-0.666l-0.665 0.666zM7.634 16.471h16.732v-0.941h-16.732v0.941zM13.994 8.974l-6.693 6.693 0.665 0.666 6.693-6.693-0.665-0.665zM7.301 16.333l6.693 6.693 0.665-0.666-6.693-6.693-0.665 0.666zM1.412 16c0-8.057 6.531-14.588 14.588-14.588v-0.941c-8.577 0-15.529 6.953-15.529 15.529h0.941zM16 1.412c8.057 0 14.588 6.531 14.588 14.588h0.941c0-8.577-6.953-15.529-15.529-15.529v0.941zM30.588 16c0 8.057-6.531 14.588-14.588 14.588v0.941c8.577 0 15.529-6.953 15.529-15.529h-0.941zM16 30.588c-8.057 0-14.588-6.531-14.588-14.588h-0.941c0 8.577 6.953 15.529 15.529 15.529v-0.941z"></path>
</symbol>
  </defs>
</svg>