<svg xmlns="http://www.w3.org/2000/svg" width="18" height="18" fill="none"><path fill="#603322" d="M17 9A8 8 0 111 9a8 8 0 0116 0z"/><path fill="#FFFBF3" d="M13.444 9l.354.354a.5.5 0 000-.708L13.444 9zm-8.888-.5a.5.5 0 100 1v-1zm4.98 3.702a.5.5 0 10.706.707l-.707-.707zm.706-7.111a.5.5 0 10-.707.707l.707-.707zM13.444 8.5H4.556v1h8.888v-1zm-3.202 4.41l3.556-3.556-.707-.708-3.556 3.556.707.707zm3.556-4.264l-3.556-3.555-.707.707 3.556 3.556.707-.708zM16.5 9A7.5 7.5 0 019 16.5v1A8.5 8.5 0 0017.5 9h-1zM9 16.5A7.5 7.5 0 011.5 9h-1A8.5 8.5 0 009 17.5v-1zM1.5 9A7.5 7.5 0 019 1.5v-1A8.5 8.5 0 00.5 9h1zM9 1.5A7.5 7.5 0 0116.5 9h1A8.5 8.5 0 009 .5v1z"/></svg>