<svg width="34" height="34" fill="none" xmlns="http://www.w3.org/2000/svg"><path d="M33 17c0 8.837-7.163 16-16 16S1 25.837 1 17 8.163 1 17 1s16 7.163 16 16z" fill="#FCE5B8"/><path d="M25.889 17l.353.354a.5.5 0 000-.708L25.89 17zM8.11 16.5a.5.5 0 000 1v-1zm10.313 7.258a.5.5 0 00.707.707l-.707-.707zm.707-14.223a.5.5 0 00-.707.707l.707-.707zm6.76 6.965H8.11v1h17.78v-1zm-6.758 7.965l7.111-7.111-.707-.708-7.11 7.112.706.707zm7.111-7.819l-7.11-7.11-.708.706 7.111 7.112.707-.708zM32.5 17c0 8.56-6.94 15.5-15.5 15.5v1c9.113 0 16.5-7.387 16.5-16.5h-1zM17 32.5C8.44 32.5 1.5 25.56 1.5 17h-1c0 9.113 7.387 16.5 16.5 16.5v-1zM1.5 17C1.5 8.44 8.44 1.5 17 1.5v-1C7.887.5.5 7.887.5 17h1zM17 1.5c8.56 0 15.5 6.94 15.5 15.5h1C33.5 7.887 26.113.5 17 .5v1z" fill="#FFFBF3"/></svg>