<svg version="1.0" xmlns="http://www.w3.org/2000/svg" width="780" height="780" viewBox="0 0 585 585"><path d="M263 5.4c0 2.6 6.3 9.9 22.3 25.4 10 9.8 13.6 15.9 14.2 23.7 1 13.6-7.1 27.7-25.7 44.6-26.9 24.5-37.1 36.6-42.8 50.8-3.2 8-4.2 12.4-5.4 24.4-.5 5.1 1.9 20 4.2 26.7 6.8 19.7 23.7 40.2 40.4 49.1 2 1.1 1.9.8-.7-3.7-16.6-28.1-22.4-55.9-15.8-75.5 4-12 11.7-21.5 32.3-39.9 13.1-11.7 17.9-16.9 24.6-26.6 14.2-20.7 17.8-44.7 9.3-61.7-6.1-12-15.3-19.2-35.6-27.7-8.1-3.4-16.3-7.1-18-8.2-1.8-1.1-3.3-1.7-3.3-1.4zm-33.1 57.2c5.1 10.1 4.7 18-1.3 27.9-4.6 7.6-10 13.4-31.7 33.7-15.9 15.1-22.2 24.9-25.2 39.3-1.2 6.1-1.4 18.8-.4 23.5 3.1 13.7 9.3 25.3 18.8 35.1 5.7 5.9 13.9 12.5 12.4 9.9-.5-.8-2.3-3.8-4.1-6.5-11.9-18.8-16.9-39.3-13.5-54.7 3.3-14.4 6.6-19.3 28.5-41.8 10.9-11.2 15.2-16.5 19.6-24 11.5-19.5 10.2-34.7-3.8-46.4-2.1-1.8-2-1.5.7 4z"/><path d="M356.8 95c-1.3 11.1-11 23.5-30.8 39.2-18.6 14.7-27.3 26.5-30.4 41.1-4.6 22.1 4.4 45.8 23.4 61.6 3.4 2.8 6.5 5.1 7 5.1s-.2-1.7-1.6-3.8c-11.8-17.2-18-40.4-14.8-55.8 2.4-11.8 6.9-18.3 25.8-37.8 12.6-13 17.7-19.9 21.4-29 2.8-6.8 3.6-17.7 1.7-22.2l-1.2-2.9-.5 4.5zM69.5 280.9c-5.3 2.4-9.7 6.9-12.6 12.8-2.1 4.1-2.4 6.3-2.4 15.3.1 25.1 6.8 61 17.1 91.8 7.2 21.3 18.4 44.6 31.9 66.3C119 492 147 520.7 171 536.3c19.8 12.8 46.5 23.4 66 26.2 2.5.4 6.3 1 8.5 1.4 5.8 1.1 28.6 1.1 38.5 0 40.1-4.5 77.9-24.4 110.9-58.3l9.3-9.7 7.7-.4c8.2-.5 8.5-.5 17.7-2.9 32-8.3 68.5-38 86.9-70.6 6.4-11.2 11.5-25 13.2-35 .9-6 1.1-18.9.3-23-.5-2.5-1.2-5.6-1.5-7-1.1-5.4-7-15.5-11.9-20.4-9.2-9-20.1-13.4-34.8-13.9l-7.6-.2.5-10.5c.4-9.1.2-11.3-1.6-16-2.5-6.7-7.6-12.4-13.3-15-4.2-1.9-8.6-2-195.3-2-182.8 0-191.2.1-195 1.9zm386.6 17c2.7 2.7 3.1 4.2 3.2 10.6 0 2.8-1.2 17.5-1.7 20.5-.3 1.4-.7 5-1.1 8.1l-.6 5.6 5.1-1.3c20.3-5.2 34.8-2.9 44.7 7.1 7 7.2 9.3 14.2 8.9 27.5-1 27.7-22.8 61.6-54.2 83.9-18.1 12.8-35.6 19.3-53.1 19.5l-10.2.1-5.3 6c-17.5 19.9-37.6 35.8-58.3 46.3-7.1 3.6-17.1 8-20 8.7-.5.1-1.7.5-2.5.8-2.6 1-12.4 3.6-15.9 4.2-1.9.3-3.7.8-4.1 1-2.8 1.7-32.6 2.5-44.5 1.2-8.9-1-23.6-4.7-34.4-8.7-8.8-3.2-26.4-11.8-26.9-13.2-.2-.4-.8-.8-1.3-.8-1.5 0-19.2-13-27.1-20-47.5-41.9-79.9-112.2-86.4-187-.3-3.6-.7-7.5-.9-8.7-.6-3.7 1.7-10.3 4.3-12.3 2.4-2 4.9-2 190.9-2h188.5l2.9 2.9z"/><path d="M467.5 353.1c-10.8 2.4-14.5 4-15.1 6.7-4.9 21.5-11.2 41-18.9 58.7-6.4 14.8-12.2 25.6-22.1 41.5-2.9 4.6-5.1 8.6-4.9 8.8.6.6 20.5-4.7 26.5-7 6.7-2.6 22.3-10.9 24-12.8.3-.3 2.3-1.8 4.5-3.5 8.8-6.5 19-16.6 25.9-25.5 26.7-34.8 22.8-66.6-8.4-67.5-4.1-.2-9.3.1-11.5.6zm17.7 16.5c3.3 1.7 4 2.8 4.3 6.7.7 7.5-6.1 23.4-14.3 33.5-8.9 11.3-20.5 21.8-31.5 28.7l-2.8 1.8 3.7-7.9c3.3-7.3 11.2-26.6 11.8-28.9.1-.6 1.7-5.5 3.4-11s4-12.9 5-16.5c1.5-5.3 2.2-6.5 4.2-7.1 4.5-1.1 13.4-.7 16.2.7zm-84.8-11c-.8 3.2 1.5 5.9 4.4 5 2.5-.8 3.2-2.5 2.1-5.4-1.2-3.3-5.7-3-6.5.4zm22.2 19c-1 2.7-.7 4.3 1.3 5.4 1.1.5 2.6.7 3.5.4 2.1-.8 3-4.2 1.6-5.9-1.6-2-5.6-1.9-6.4.1zM415 410c-2.2 2.2-1.7 4.5 1.1 6.1 1.4.7 2.3.5 3.9-1.1s1.8-2.5 1.1-3.9c-1.6-2.8-3.9-3.3-6.1-1.1zm-37 9.9c-1.3 2.5-.4 4.8 2.1 5.6 3.8 1.2 6.5-3.5 3.7-6.3-1.8-1.8-4.6-1.4-5.8.7zm-1.6 32.9c-.6.4-1.4 1.6-1.8 2.8-.9 2.8 1.6 4.8 4.9 4 3.1-.8 3.5-5 .6-6.6-2.3-1.2-2.3-1.2-3.7-.2zm-38.4 6.7c-2 2.4-.4 6.5 2.5 6.5 4.1 0 5.5-4.2 2.2-6.5-2.7-1.9-3.2-1.9-4.7 0zm-38.2 17.6c-3.5 2-.8 8.6 3 7.2 3.4-1.3 4.1-4.2 1.6-6.7-1.8-1.9-2.3-1.9-4.6-.5zm38.2.3c-2 2.5-.8 6.1 2.2 6.4 3.6.4 5.3-2.6 3.2-5.6-1.8-2.5-3.7-2.8-5.4-.8zm25.2 10.7c-3.4 1.3-2.7 6.3.9 6.7 3.1.4 5.3-2 4.4-4.7-.7-2.4-2.4-3.1-5.3-2zm-130.6 6.5c-1.8 1.7-1.9 2.4-1 4.8 1.2 3 7.4 1.3 7.4-2 0-1.4-2.7-4.4-4-4.4-.5 0-1.6.7-2.4 1.6zm72.6 4.6c-2.5 2.5-.6 6.8 3 6.8.9 0 2.2-.9 2.8-1.9 1.3-2.5 1.3-2.7-.6-4.5-1.9-1.9-3.6-2-5.2-.4zm20.6 2.9c-3.3 1.8-1.6 6.9 2.3 6.9 2.9 0 4.4-2.7 3.1-5.5-1.2-2.7-2.7-3-5.4-1.4zm-123.2 7.5c-2.2 2.2-2 5.1.5 6.5 1.8.9 2.5.7 4.2-.9 2.2-2.3 1.8-4.5-1.2-6.1-1.5-.8-2.3-.7-3.5.5zm61.9 4.3c-1.3 4.1 2.1 7 5.5 4.8 2.3-1.4 2.4-2.1 1-4.8-1.4-2.5-5.7-2.5-6.5 0zm32 12.7c-1.9 2-1.6 4.3.8 5.8 3.7 2.3 7.7-3.5 4.1-6.1-2.3-1.7-2.9-1.6-4.9.3zm-54.4 2.8c-.7.8-1.1 2.5-.9 3.8.4 2.9 4.6 3.8 6.4 1.3 1.2-1.6.8-5.5-.6-5.5-.5 0-1.5-.2-2.3-.5-.7-.3-1.9.1-2.6.9zm27.3 2.4c-3.5 2.4-1.5 7.6 2.7 7 1.6-.2 2.5-1 2.7-2.6.6-3.8-2.6-6.4-5.4-4.4z"/></svg>