<svg xmlns="http://www.w3.org/2000/svg" width="10" height="9" fill="none"><path fill="#FFD400" fill-rule="evenodd" d="M7.919 8.58a.34.34 0 00.261-.045.262.262 0 00.128-.205c.06-.752-.415-2.21-.29-2.549.125-.338 1.48-1.273 1.93-1.912a.239.239 0 00.032-.233.275.275 0 00-.182-.17c-.792-.28-2.51-.336-2.836-.544C6.702 2.754 5.461.346 4.978.101c-.082-.043-.179.035-.241.1-.548.576-.857 2.516-1.184 2.724-.326.208-2.504-.138-3.293.143a.295.295 0 00-.181.17c-.077.208 1.652 1.764 1.836 1.927.298.263.537.486.585.619.125.338-.35 1.797-.29 2.548a.262.262 0 00.128.206.34.34 0 00.261.045c.826-.183 2.254-1.03 2.657-1.03s1.828.847 2.657 1.03l.006-.003z" clip-rule="evenodd"/><path fill="url(#a)" fill-rule="evenodd" d="M7.396 7.971a.34.34 0 00.262-.045.262.262 0 00.127-.205c.06-.752-.414-2.21-.29-2.549.126-.338 1.48-1.273 1.931-1.912a.239.239 0 00.031-.233.282.282 0 00-.181-.17c-.792-.281-2.51-.336-2.836-.544C6.113 2.105 5.526.679 4.978.1a.324.324 0 00-.241-.1.324.324 0 00-.242.1c-.548.577-1.138 2.002-1.462 2.213-.326.208-2.043.263-2.835.544a.295.295 0 00-.182.17c-.028.08-.02.16.031.233.452.64 1.806 1.574 1.93 1.912.125.338-.349 1.797-.289 2.549a.262.262 0 00.128.205c.076.05.167.065.26.045.827-.183 2.255-1.03 2.658-1.03s1.828.847 2.657 1.03h.005z" clip-rule="evenodd"/><path fill="url(#b)" fill-rule="evenodd" d="M9.105 3.225c-.957.606-1.493.967-2.328 1.453-.113.066-.221.206-.181.319.244.701.942 1.824.993 2.526.029.413-.369.288-.604.198-.81-.309-1.354-.742-2.13-1.09-.292-.133-.507-.093-.763.055-.465.27-1.3.93-1.995 1.12-.196.055-.318.042-.398-.038a.27.27 0 00.12.158c.076.05.167.065.26.045.827-.183 2.254-1.03 2.658-1.03.403 0 1.828.847 2.656 1.03a.34.34 0 00.262-.045.262.262 0 00.127-.205c.06-.752-.414-2.21-.29-2.549.126-.338 1.48-1.273 1.931-1.912a.239.239 0 00.031-.233.282.282 0 00-.181-.17c-.792-.281-2.51-.336-2.836-.544C6.11 2.105 5.523.679 4.975.1a.324.324 0 00-.241-.1.324.324 0 00-.242.1c-.085.09-.173.2-.258.323.239-.22.488-.358.71-.052.411.566.59 1.175.812 1.749.139.358.221.506 1.019.554.914.055 1.674.11 2.22.19.3.045.306.23.104.359l.006.002z" clip-rule="evenodd" style="mix-blend-mode:multiply"/><path fill="url(#c)" fill-rule="evenodd" d="M6.763 7.29c-.122.045-.42.103-.06.278.154.075.318.13.486.173.363.09.366-.138.312-.373-.105-.452-.34-.985-.556-1.424-.1-.2-.224-.306-.185.013.046.36.117.719.16 1.08.02.165.01.188-.157.248v.005z" clip-rule="evenodd" style="mix-blend-mode:screen"/><path fill="#848484" fill-rule="evenodd" d="M1.75 7.86c.094.155.46.589.597.676.076.05.167.066.26.046.827-.183 2.255-1.03 2.658-1.03s1.828.847 2.657 1.03a.34.34 0 00.26-.046.262.262 0 00.128-.205c.06-.752-.414-2.21-.29-2.548.126-.339 1.48-1.273 1.931-1.912a.239.239 0 00.031-.233c-.054-.143-.465-.617-.59-.715.011.018.06.083.068.106.028.08.02.16-.031.233-.451.639-1.805 1.573-1.93 1.912-.125.338.349 1.796.29 2.548a.262.262 0 01-.129.206.338.338 0 01-.26.045c-.827-.183-2.255-1.03-2.658-1.03s-1.828.847-2.657 1.03a.34.34 0 01-.26-.045c-.015-.01-.063-.056-.075-.066V7.86z" clip-rule="evenodd"/><path fill="url(#d)" fill-rule="evenodd" d="M7.498 5.171l.522.609c.128-.338 1.48-1.273 1.93-1.91a.239.239 0 00.032-.232c-.006-.016-.017-.036-.029-.058a3.908 3.908 0 00-.559-.657c.012.018.06.083.068.106.029.08.02.16-.03.233l-.066.087C8.86 3.983 7.62 4.85 7.5 5.174l-.003-.003z" clip-rule="evenodd"/><path fill="url(#e)" fill-rule="evenodd" d="M8.018 5.78l-.522-.609c-.125.339.349 1.797.29 2.549a.262.262 0 01-.129.205c-.005.005-.014.008-.02.013l.523.609.02-.013a.262.262 0 00.127-.205c.06-.752-.414-2.21-.289-2.549z" clip-rule="evenodd"/><path fill="url(#f)" fill-rule="evenodd" d="M7.396 7.97C6.57 7.789 5.142 6.94 4.74 6.94l.523.612c.403.003 1.828.847 2.654 1.03.085.02.167.008.24-.032l-.521-.61a.342.342 0 01-.239.033v-.002z" clip-rule="evenodd"/><path fill="url(#g)" fill-rule="evenodd" d="M2.605 8.58c.826-.182 2.254-1.03 2.657-1.03l-.522-.61c-.38 0-1.678.759-2.518.994a3.146 3.146 0 01-.139.035.34.34 0 01-.261-.045c-.014-.01-.063-.055-.074-.065.088.143.4.521.556.65l.037.027a.34.34 0 00.261.045h.003z" clip-rule="evenodd"/><path fill="url(#h)" fill-rule="evenodd" d="M5.634 7.535c-.338-.146-.418-.15-.718-.03-.676.268-1.539.794-2.175.937-.286.065-.414.042-.562-.058.068.07.128.125.168.153.076.05.167.065.26.045.827-.183 2.255-1.03 2.658-1.03s1.828.847 2.657 1.03c.04.007.076.01.113.007-.201-.03-.394-.117-.624-.215-.577-.25-1.238-.609-1.774-.837l-.003-.002z" clip-rule="evenodd" style="mix-blend-mode:multiply"/><path fill="url(#i)" fill-rule="evenodd" d="M8.22 5.31c-.395.333-.42.42-.333.904.12.652.301 1.349.36 2a.684.684 0 01-.019.288.256.256 0 00.082-.168c.06-.751-.414-2.21-.29-2.548.126-.338 1.48-1.273 1.931-1.912a.239.239 0 00.031-.233c-.025-.073-.142-.226-.267-.373.162.308.128.654-.357 1.097-.364.33-.761.63-1.139.947V5.31z" clip-rule="evenodd" style="mix-blend-mode:multiply"/><path fill="url(#j)" fill-rule="evenodd" d="M9.397 3.41c.273-.046.435.313.418.513a.746.746 0 01-.097.226c.091-.096.17-.19.233-.278a.239.239 0 00.031-.233c-.005-.016-.017-.036-.028-.058a3.907 3.907 0 00-.56-.657c.012.018.06.083.069.106.028.08.02.16-.031.233l-.066.087-.09.11a.388.388 0 01.127-.047l-.006-.003z" clip-rule="evenodd" style="mix-blend-mode:screen"/><path fill="url(#k)" fill-rule="evenodd" d="M2.25 8.085a.361.361 0 01-.034-.048.146.146 0 01-.014-.095l-.12.03a.34.34 0 01-.26-.045c-.015-.01-.063-.056-.074-.066.088.143.4.523.556.65.014.013.025.02.037.028.076.05.167.066.261.046.077-.018.159-.04.244-.068a.413.413 0 01-.27-.1 3.488 3.488 0 01-.332-.33l.006-.002z" clip-rule="evenodd" style="mix-blend-mode:screen"/><path fill="url(#l)" fill-rule="evenodd" d="M7.445 8.04c.11.1.198.215.29.328.059.073.115.164.07.186.04.01.077.02.114.028a.34.34 0 00.26-.045.266.266 0 00.114-.138c-.042-.005-.076-.01-.116-.053a5.16 5.16 0 01-.275-.317c-.117-.145-.111-.155-.123-.278a.26.26 0 01-.124.17.338.338 0 01-.262.046.922.922 0 01-.079-.02.48.48 0 01.128.087l.003.006z" clip-rule="evenodd" style="mix-blend-mode:screen"/><defs><radialGradient id="g" cx="0" cy="0" r="1" gradientTransform="matrix(3.79234 0 0 3.34785 2.109 9.313)" gradientUnits="userSpaceOnUse"><stop stop-color="#FC8F00"/><stop offset="1" stop-color="#E86900"/></radialGradient><radialGradient id="a" cx="0" cy="0" r="1" gradientTransform="matrix(8.85353 0 0 7.81583 3.022 1.599)" gradientUnits="userSpaceOnUse"><stop stop-color="#FCF800"/><stop offset="1" stop-color="#FC9700"/></radialGradient><radialGradient id="c" cx="0" cy="0" r="1" gradientTransform="matrix(3.62203 0 0 3.1975 5.738 7.215)" gradientUnits="userSpaceOnUse"><stop/><stop offset=".08" stop-color="#222111"/><stop offset=".22" stop-color="#5C582E"/><stop offset=".36" stop-color="#8E8747"/><stop offset=".5" stop-color="#B6AE5B"/><stop offset=".64" stop-color="#D6CC6B"/><stop offset=".77" stop-color="#ECE176"/><stop offset=".89" stop-color="#FAEE7D"/><stop offset="1" stop-color="#FFF380"/></radialGradient><radialGradient id="d" cx="0" cy="0" r="1" gradientTransform="matrix(4.12446 0 0 3.64104 6.905 2.274)" gradientUnits="userSpaceOnUse"><stop stop-color="#FCAC00"/><stop offset="1" stop-color="#FF7300"/></radialGradient><radialGradient id="e" cx="0" cy="0" r="1" gradientTransform="matrix(3.78951 0 0 3.34535 4.876 7.642)" gradientUnits="userSpaceOnUse"><stop stop-color="#FC8F00"/><stop offset="1" stop-color="#E86900"/></radialGradient><radialGradient id="f" cx="0" cy="0" r="1" gradientTransform="matrix(4.73759 0 0 4.18231 8.957 4.981)" gradientUnits="userSpaceOnUse"><stop stop-color="#FCAC00"/><stop offset="1" stop-color="#FF7300"/></radialGradient><radialGradient id="b" cx="0" cy="0" r="1" gradientTransform="matrix(8.4391 0 0 7.44997 4.172 2.358)" gradientUnits="userSpaceOnUse"><stop stop-color="#fff"/><stop offset=".1" stop-color="#FFFCF9"/><stop offset=".22" stop-color="#FFF6E9"/><stop offset=".36" stop-color="#FFECCE"/><stop offset=".51" stop-color="#FFDEA9"/><stop offset=".67" stop-color="#FFCB7A"/><stop offset=".84" stop-color="#FFB540"/><stop offset="1" stop-color="#FF9D00"/></radialGradient><radialGradient id="h" cx="0" cy="0" r="1" gradientTransform="matrix(4.78585 0 0 4.22491 5.373 5.785)" gradientUnits="userSpaceOnUse"><stop stop-color="#fff"/><stop offset=".1" stop-color="#FDFBF9"/><stop offset=".22" stop-color="#FBF0E9"/><stop offset=".36" stop-color="#F6DDCE"/><stop offset=".51" stop-color="#EFC4A9"/><stop offset=".67" stop-color="#E7A37A"/><stop offset=".84" stop-color="#DC7C40"/><stop offset="1" stop-color="#D15000"/></radialGradient><radialGradient id="i" cx="0" cy="0" r="1" gradientTransform="matrix(4.55024 0 0 4.01692 5.685 4.954)" gradientUnits="userSpaceOnUse"><stop stop-color="#fff"/><stop offset=".1" stop-color="#FDFBF9"/><stop offset=".22" stop-color="#FBF0E9"/><stop offset=".36" stop-color="#F6DDCE"/><stop offset=".51" stop-color="#EFC4A9"/><stop offset=".67" stop-color="#E7A37A"/><stop offset=".84" stop-color="#DC7C40"/><stop offset="1" stop-color="#D15000"/></radialGradient><radialGradient id="j" cx="0" cy="0" r="1" gradientTransform="matrix(2.06932 0 0 1.82678 9.264 2.497)" gradientUnits="userSpaceOnUse"><stop stop-color="#FFF261"/><stop offset=".11" stop-color="#FAED5F"/><stop offset=".23" stop-color="#ECE05A"/><stop offset=".36" stop-color="#D6CB51"/><stop offset=".5" stop-color="#B6AD45"/><stop offset=".64" stop-color="#8E8636"/><stop offset=".78" stop-color="#5C5723"/><stop offset=".92" stop-color="#22210D"/><stop offset="1"/></radialGradient><radialGradient id="k" cx="0" cy="0" r="1" gradientTransform="matrix(2.12042 0 0 1.87585 1.95 6.877)" gradientUnits="userSpaceOnUse"><stop stop-color="#FFF261"/><stop offset=".11" stop-color="#FAED5F"/><stop offset=".23" stop-color="#ECE05A"/><stop offset=".36" stop-color="#D6CB51"/><stop offset=".5" stop-color="#B6AD45"/><stop offset=".64" stop-color="#8E8636"/><stop offset=".78" stop-color="#5C5723"/><stop offset=".92" stop-color="#22210D"/><stop offset="1"/></radialGradient><radialGradient id="l" cx="0" cy="0" r="1" gradientTransform="matrix(2.24815 0 0 1.98886 8.628 6.935)" gradientUnits="userSpaceOnUse"><stop stop-color="#FFF261"/><stop offset=".11" stop-color="#FAED5F"/><stop offset=".23" stop-color="#ECE05A"/><stop offset=".36" stop-color="#D6CB51"/><stop offset=".5" stop-color="#B6AD45"/><stop offset=".64" stop-color="#8E8636"/><stop offset=".78" stop-color="#5C5723"/><stop offset=".92" stop-color="#22210D"/><stop offset="1"/></radialGradient></defs></svg>