<?xml version="1.0" standalone="no"?>
<!DOCTYPE svg PUBLIC "-//W3C//DTD SVG 20010904//EN"
 "http://www.w3.org/TR/2001/REC-SVG-20010904/DTD/svg10.dtd">
<svg version="1.0" xmlns="http://www.w3.org/2000/svg"
 width="585.000000pt" height="585.000000pt" viewBox="0 0 585.000000 585.000000"
 preserveAspectRatio="xMidYMid meet">
<metadata>
Created by potrace 1.14, written by Peter Selinger 2001-2017
</metadata>
<g transform="translate(0.000000,585.000000) scale(0.100000,-0.100000)"
fill="#000000" stroke="none">
<path d="M2630 5796 c0 -26 63 -99 223 -254 100 -98 136 -159 142 -237 10
-136 -71 -277 -257 -446 -269 -245 -371 -366 -428 -508 -32 -80 -42 -124 -54
-244 -5 -51 19 -200 42 -267 68 -197 237 -402 404 -491 20 -11 19 -8 -7 37
-166 281 -224 559 -158 755 40 120 117 215 323 399 131 117 179 169 246 266
142 207 178 447 93 617 -61 120 -153 192 -356 277 -81 34 -163 71 -180 82 -18
11 -33 17 -33 14z"/>
<path d="M2299 5224 c51 -101 47 -180 -13 -279 -46 -76 -100 -134 -317 -337
-159 -151 -222 -249 -252 -393 -12 -61 -14 -188 -4 -235 31 -137 93 -253 188
-351 57 -59 139 -125 124 -99 -5 8 -23 38 -41 65 -119 188 -169 393 -135 547
33 144 66 193 285 418 109 112 152 165 196 240 115 195 102 347 -38 464 -21
18 -20 15 7 -40z"/>
<path d="M3568 4900 c-13 -111 -110 -235 -308 -392 -186 -147 -273 -265 -304
-411 -46 -221 44 -458 234 -616 34 -28 65 -51 70 -51 5 0 -2 17 -16 38 -118
172 -180 404 -148 558 24 118 69 183 258 378 126 130 177 199 214 290 28 68
36 177 17 222 l-12 29 -5 -45z"/>
<path d="M695 3041 c-53 -24 -97 -69 -126 -128 -21 -41 -24 -63 -24 -153 1
-251 68 -610 171 -918 72 -213 184 -446 319 -663 155 -249 435 -536 675 -692
198 -128 465 -234 660 -262 25 -4 63 -10 85 -14 58 -11 286 -11 385 0 401 45
779 244 1109 583 l93 97 77 4 c82 5 85 5 177 29 320 83 685 380 869 706 64
112 115 250 132 350 9 60 11 189 3 230 -5 25 -12 56 -15 70 -11 54 -70 155
-119 204 -92 90 -201 134 -348 139 l-76 2 5 105 c4 91 2 113 -16 160 -25 67
-76 124 -133 150 -42 19 -86 20 -1953 20 -1828 0 -1912 -1 -1950 -19z m3866
-170 c27 -27 31 -42 32 -106 0 -28 -12 -175 -17 -205 -3 -14 -7 -50 -11 -81
l-6 -56 51 13 c203 52 348 29 447 -71 70 -72 93 -142 89 -275 -10 -277 -228
-616 -542 -839 -181 -128 -356 -193 -531 -195 l-102 -1 -53 -60 c-175 -199
-376 -358 -583 -463 -71 -36 -171 -80 -200 -87 -5 -1 -17 -5 -25 -8 -26 -10
-124 -36 -159 -42 -19 -3 -37 -8 -41 -10 -28 -17 -326 -25 -445 -12 -89 10
-236 47 -344 87 -88 32 -264 118 -269 132 -2 4 -8 8 -13 8 -15 0 -192 130
-271 200 -475 419 -799 1122 -864 1870 -3 36 -7 75 -9 87 -6 37 17 103 43 123
24 20 49 20 1909 20 l1885 0 29 -29z"/>
<path d="M4675 2319 c-108 -24 -145 -40 -151 -67 -49 -215 -112 -410 -189
-587 -64 -148 -122 -256 -221 -415 -29 -46 -51 -86 -49 -88 6 -6 205 47 265
70 67 26 223 109 240 128 3 3 23 18 45 35 88 65 190 166 259 255 267 348 228
666 -84 675 -41 2 -93 -1 -115 -6z m177 -165 c33 -17 40 -28 43 -67 7 -75 -61
-234 -143 -335 -89 -113 -205 -218 -315 -287 l-28 -18 37 79 c33 73 112 266
118 289 1 6 17 55 34 110 17 55 40 129 50 165 15 53 22 65 42 71 45 11 134 7
162 -7z"/>
<path d="M4004 2264 c-8 -32 15 -59 44 -50 25 8 32 25 21 54 -12 33 -57 30
-65 -4z"/>
<path d="M4226 2074 c-10 -27 -7 -43 13 -54 11 -5 26 -7 35 -4 21 8 30 42 16
59 -16 20 -56 19 -64 -1z"/>
<path d="M4150 1750 c-22 -22 -17 -45 11 -61 14 -7 23 -5 39 11 16 16 18 25
11 39 -16 28 -39 33 -61 11z"/>
<path d="M3780 1651 c-13 -25 -4 -48 21 -56 38 -12 65 35 37 63 -18 18 -46 14
-58 -7z"/>
<path d="M3764 1322 c-6 -4 -14 -16 -18 -28 -9 -28 16 -48 49 -40 31 8 35 50
6 66 -23 12 -23 12 -37 2z"/>
<path d="M3380 1255 c-20 -24 -4 -65 25 -65 41 0 55 42 22 65 -27 19 -32 19
-47 0z"/>
<path d="M2998 1079 c-35 -20 -8 -86 30 -72 34 13 41 42 16 67 -18 19 -23 19
-46 5z"/>
<path d="M3380 1076 c-20 -25 -8 -61 22 -64 36 -4 53 26 32 56 -18 25 -37 28
-54 8z"/>
<path d="M3632 969 c-34 -13 -27 -63 9 -67 31 -4 53 20 44 47 -7 24 -24 31
-53 20z"/>
<path d="M2326 904 c-18 -17 -19 -24 -10 -48 12 -30 74 -13 74 20 0 14 -27 44
-40 44 -5 0 -16 -7 -24 -16z"/>
<path d="M3052 858 c-25 -25 -6 -68 30 -68 9 0 22 9 28 19 13 25 13 27 -6 45
-19 19 -36 20 -52 4z"/>
<path d="M3258 829 c-33 -18 -16 -69 23 -69 29 0 44 27 31 55 -12 27 -27 30
-54 14z"/>
<path d="M2026 754 c-22 -22 -20 -51 5 -65 18 -9 25 -7 42 9 22 23 18 45 -12
61 -15 8 -23 7 -35 -5z"/>
<path d="M2645 711 c-13 -41 21 -70 55 -48 23 14 24 21 10 48 -14 25 -57 25
-65 0z"/>
<path d="M2965 584 c-19 -20 -16 -43 8 -58 37 -23 77 35 41 61 -23 17 -29 16
-49 -3z"/>
<path d="M2421 556 c-7 -8 -11 -25 -9 -38 4 -29 46 -38 64 -13 12 16 8 55 -6
55 -5 0 -15 2 -23 5 -7 3 -19 -1 -26 -9z"/>
<path d="M2694 532 c-35 -24 -15 -76 27 -70 16 2 25 10 27 26 6 38 -26 64 -54
44z"/>
</g>
</svg>
