<svg width="630" height="572" fill="none" xmlns="http://www.w3.org/2000/svg"><path d="M204.206 153.723c-7.885-5.783-16.241-3.038-22.035 4.291-7.048 8.915-4.219 14.318-16.141 17.083-9.804 2.251-14.326.58-19.74 10.065-5.099 8.83-3.786 11.349-13.162 16.1-9.071 4.591-13.785 6.64-19.75 15.141-6.345 9.06-10.264 10.521-19.495 15.681-8.202 4.584-14.367 9.345-18.421 17.711-5.1 10.517-5.822 11.28-16.129 17.04-8.839 4.941-14.18 10.45-16.982 20.735-1.643 6.025-2.257 20.181 1.843 21.119l8.524 10.651c10.017 17.77 26.477 22.718 44.792 13.485 17.426-8.771 28.046-24.37 41.803-37.801 12.003-11.732 24.761-20.789 34.412-35.595 9.895-15.099 37.697-8.729 50.938-20.794 25.541-23.246-1.114-70.741-20.457-84.912z" fill="#F7A037"/><path d="M79.568 323.599s54.838 132.705 73.213 140.182c33.245 13.517 464.102-166.941 464.102-166.941l-91.786-161.899L79.568 323.599z" fill="#FFDE94"/><path d="M79.522 323.625l445.529-188.659-7.767-16.205L71.202 306.449l8.32 17.176z" fill="#DD3631"/><path d="M71.184 306.459s19.196-29.997 42.767-52.165c23.571-22.169 104.109-82.59 104.109-82.59l299.206-52.933L71.184 306.459z" fill="#DB7067"/><path d="M100.054 387.936c7.647-.806 16.355-8.783 24.696-10.957 9.689-2.522 20.272-1.859 30.187-3.957 26.478-5.627 47.008-24.314 70.998-36.192 25.242-12.483 54.343-19.301 81.506-26.615 26.706-7.189 50.937-19.298 77.807-25.551 26.024-6.055 47.208-21.603 72.142-29.417 17.997-5.61 32.748-17.563 50.463-24.618 8.393-3.364 18.623-2.672 26.773-7.24 7.855-4.39 11.833-12.593 20.868-15.515 7.983-2.536 15.057 1.69 17.129 12.264 2.071 10.575-4.983 11.349-13.862 14.207-25.564 8.225-39.385 31.941-62.162 44.983-23.31 13.328-52.568 13.405-78.099 20.536-23.325 6.519-43.096 19.053-65.127 28.701-19.854 8.706-42.612 11.619-63.21 18.588-20.242 6.877-39.163 14.129-58.387 23.642-18.06 8.899-37.074 10.079-55.9 17.181-17.772 6.717-31.33 20.633-48.965 27.297-15.687 5.934-30.816-9.086-29.53-20.736l2.673-6.601z" fill="#DD3631"/><path d="M56.343 289.065c-24.081 9.275-16.83 15.83 4.613 56.502 21.443 40.673 62.136 150.213 87.06 146.555 24.924-3.659 481.392-172.766 481.392-172.766l-12.581-22.508S175.579 470.269 159.139 461.483c-16.44-8.786-60.826-111.131-72.406-134.139-11.58-23.007-15.584-43.971-30.39-38.279z" fill="#F5892F"/><path d="M236.694 222.031c4.295 3.663 11.937-3.335 16.313-4.514 6.564-1.779 11.571-4.375 17.776-7.269 3.349-1.561 2.997-.479 6.753.4 3.299.81 6.296-.29 9.358-1.273 5.927-1.913 11.96-3.551 17.692-6.049 5.915-2.577 11.298-5.12 17.365-7.446 7.389-2.935 15.379-6.037 21.216-11.62 7.221-6.894 4.974-14.381-5.664-13.769-12.395.697-22.405 6.281-33.901 10.577-7.772 2.934-16.012 6.08-24.351 5.646-6.769-.342-13.991.645-19.435 5.135-6.005 4.875-8.535 11.946-12.092 18.42-2.08 3.746-4.988 6.053-7.704 9.09.219-.123.156-.662.202-1.094l-3.528 3.766z" fill="#C92F2F"/><path d="M228.225 129.21c-8.341-3.434-18.084 5.325-18.431 12.921-10.021.387-9.041 8.152-10.645 14.741-8.75.585-9.654 9.558-8.209 16.273-3.86.818-5.685 8.38-.78 10.458-6.042 7.527-.484 20.53 9.079 23.09-1.123 8.689 12.262 17.915 20.945 12.822 7.259 10.976 25.091 4.943 26.597-6.399 9.835-2.304 16.472-20.64 7.07-26.292 6.875-3.257 8.345-8.779 7.877-15.992-.441-6.929-.066-17.042-3.256-23.905-2.278-4.91-5.86-5.455-8.641-8.697-2.227-2.594-1.519-5.692-4.432-8.143-3.642-3.071-13.596-4.383-17.174-.877z" fill="#DD3631"/><path d="M220.779 141.887c.089 3.539-2.641 11.044-7.762 8.728-.399 4.828-.941 9.508-7.161 9.719 1.29 4.661.552 9.761-6.085 8.927 2.057 1.948.509 5.875-2.864 6.002-.55 1.156.272 1.044.901 1.613l.161-1.573c3.236.225 3.921 3.441 3.473 6.084 9.491 2.923 3.925-9.753 13.137-7.116-1.225-7.818 3.692-8.928 10.718-10.009-1.579-6.676 1.791-9.206 7.699-12.329-3.39-3.391-4.018-7.895-.165-10.994-3.939-.992-8.913 5.771-12.052.948zm19.879-12.749c9.668 2.597 5.575 9.118 5.824 16.239 3.926.604 7.259-1.2 8.173 3.025.58 2.642-2.824 6.159-3.613 8.514 9.465.522 8.657 8.448 2.694 12.906 3.597 1.792 8.859 4.723 6.978 9.255-1.449 3.548-7.061 3.456-8.645 6.913 2.708 1.165 5.907 5.07 4.296 7.944-1.747 3.165-8.013.64-8.989 3.302-.597 1.649 4.442 4.095 3.961 6.744-.745 4.124-5.978 3.748-9.464 3.352 2.039 5.403 1.076 13.308-4.468 15.307l-.615.463c5.876-1.491 10.334-5.884 9.273-11.654 5.752 2.502 16.109-3.275 10.666-9.418 8.705-2.378 9.311-11.543 4.052-17.549 8.233-1.576 11.201-11.714 2.69-15.257 5.817-6.134 6.894-18.648-4.263-19.994 2.987-3.344.018-10.773-5.348-8.97 4.517-7.859-6.864-10.91-13.202-11.122z" fill="#AF2828"/><path d="M330.749 139.942c-1.551-7.804-13.379-10.007-19.453-6.217-5.414-6.948-10.97-2.06-16.931.327-4.905-5.929-12.368-1.758-16.874 2.89-2.603-2.325-9.419.48-8.568 5.063-8.944-.274-16.233 10.713-13.371 18.872-7.336 3.885-7.737 18.401.652 21.856-4.873 11.096 8.917 20.574 18.523 15.551 6.809 5.762 24.502.657 24.128-9.085 6.034 3.157 11.096 1.237 16.491-2.975 5.168-4.084 13.27-9.211 17.005-15.173 2.668-4.278 1.27-7.121 2.359-10.887.885-2.994 3.659-4.15 4.142-7.565.504-4.192-3.543-11.989-8.103-12.657z" fill="#DD3631"/><path d="M317.021 141.421c-2.721 1.999-9.938 4.023-10.761-.851-3.968 2.314-7.909 4.421-11.225.116-2.987 3.428-7.335 5.642-10.065.459-.478 2.503-4.324 3.517-6.147 1.176-1.148.235-.667.755-.781 1.513l1.303-.729c1.477 2.428-.678 4.649-2.983 5.746 2.553 8.356 9.618-2.434 12.244 5.558 5.523-5.096 8.845-2.169 13.238 2.288 4.404-4.722 8.094-3.663 13.539-1.133.931-4.24 4.131-7.094 8.508-6.024-1.182-3.357-8.988-3.264-6.87-8.119zm18.26 6.991c2.897 8.307-4.273 8.895-9.716 12.894 1.504 3.118 4.66 4.571 1.789 7.479-1.767 1.825-6.25 1.293-8.477 1.952 4.43 7.091-2.158 10.774-8.705 8.86.439 3.546.834 8.874-3.69 10.003-3.507.872-6.288-3.182-9.756-2.476.474 2.558-.92 6.913-4.017 7.341-3.34.443-4.576-5.384-7.14-4.644-1.596.461-.97 5.326-3.251 6.445-3.6 1.69-5.969-2.249-7.43-4.948-3.182 4.362-9.852 7.899-14.223 5.044l-.682-.193c4.148 3.398 9.85 4.206 13.808.355.971 5.437 10.811 9.755 12.788 2.551 6.29 4.94 13.752.446 15.753-6.545 5.428 5.027 14.856 1.695 13.267-6.219 7.736.854 18.052-5.104 13.427-13.785 4.128.324 8.435-5.814 4.267-8.627 8.461-1.082 5.039-10.842 1.988-15.487z" fill="#AF2828"/><path d="M190.259 190.903a22.103 22.103 0 002.992 7.022 1.868 1.868 0 103.262-1.823 19.265 19.265 0 01-2.627-6.09c-.39-2.389-4.012-1.465-3.653.846l.026.045zm10.753 15.54c1.184 2.759 3.612 6.461 6.761 7.153 2.34.485 3.391-3.092 1.011-3.604-2.166-.451-3.729-3.548-4.509-5.372-.953-2.218-4.214-.372-3.263 1.823zm.138-15.074c1.186 2.124 2.451 4.921 4.655 6.189 2.203 1.268 3.965-1.978 1.899-3.214a5.769 5.769 0 01-1.54-1.878c-.614-.949-1.16-1.947-1.716-2.94-1.171-2.096-4.442-.268-3.262 1.823l-.036.02zm11.886-7.062a36.59 36.59 0 003.869 5.252c1.561 1.831 4.216-.801 2.634-2.668a30.423 30.423 0 01-3.266-4.453c-1.177-2.105-4.466-.266-3.262 1.823l.025.046zm1.979 21.15a16.395 16.395 0 007.307 6.417c2.151 1.046 4.064-2.164 1.893-3.223a12.912 12.912 0 01-5.953-5.044c-1.217-2.071-4.484-.256-3.262 1.823l.015.027zm14.119 14.174c.99.253 1.997.438 3.012.553l1.288.165c.064-.036.598.085.055-.031l.349.068c2.327.59 3.327-3.055 1.012-3.603-1.678-.413-3.096-.339-4.719-.783-2.324-.626-3.35 2.973-1.017 3.595l.02.036zm36.615-31.397a14.09 14.09 0 01-1.889-4.792 1.89 1.89 0 00-2.265-1.378 1.925 1.925 0 00-1.377 2.265 17.263 17.263 0 002.269 5.728 1.868 1.868 0 103.262-1.823zm-5.899-16.544c-1.835-1.593-1.638-4.43-1.254-6.63.385-2.2-3.189-3.396-3.594-1.017-.601 3.482-.718 7.745 2.166 10.294 1.806 1.562 4.485-1.047 2.635-2.668l.047.021zm2.208-14.987c.378-1.228 1.133-2.894 2.447-3.389a1.914 1.914 0 001.368-2.26 1.864 1.864 0 00-1.531-1.403 1.846 1.846 0 00-.729.035 8.754 8.754 0 00-5.15 6c-.706 2.309 2.897 3.32 3.595 1.017zm9.75 14.02c-.922-1.65-.295-3.267.501-4.86 1.079-2.135-2.136-4.057-3.215-1.899-1.421 2.827-2.095 5.644-.548 8.582 1.122 2.136 4.379.303 3.262-1.823zm11.482-8.428c.092.571.094-.602-.025-.045.018-.1.043-.198.075-.293.137-.483-.172.311.049-.147l.165-.284s.342-.478.104-.178c.19-.242.4-.467.628-.673a1.88 1.88 0 00.013-2.651 1.898 1.898 0 00-2.641-.018 5.857 5.857 0 00-2.014 5.191 1.88 1.88 0 002.265 1.377 1.91 1.91 0 001.363-2.268l.018-.011zm-1.627 22.186a4.277 4.277 0 01-.216-3.084c.621-2.333-2.973-3.35-3.595-1.017a8.15 8.15 0 00.549 5.924c1.122 2.136 4.37.308 3.262-1.823zm12.503-.566l-.688-1.23c-.229-.41.11.345-.081-.254a7.142 7.142 0 01-.211-.826 1.876 1.876 0 10-3.653.846 11.2 11.2 0 001.318 3.257 1.866 1.866 0 002.543.719 1.866 1.866 0 00.719-2.542l.053.03zm-2.467-19.371l.864-3.055a1.866 1.866 0 00-2.719-2.184 1.88 1.88 0 00-.875 1.168l-.869 3.045a1.882 1.882 0 00.164 1.423 1.859 1.859 0 001.123.889 1.863 1.863 0 001.979-.637c.153-.192.266-.413.333-.649zm-71.37 10.771a40.52 40.52 0 013.638 2.678 1.872 1.872 0 002.756-2.081 1.864 1.864 0 00-.862-1.142 39.17 39.17 0 00-3.638-2.678c-2.109-1.142-4.022 2.068-1.894 3.223zm8.291 25.252a11.581 11.581 0 008.602 2.894 1.921 1.921 0 001.907-1.831 1.881 1.881 0 00-1.831-1.907 7.916 7.916 0 01-6.008-1.784c-1.802-1.576-4.482 1.034-2.67 2.628z" fill="#DB7067"/></svg>