<svg aria-hidden="true" style="position:absolute;width:0;height:0" xmlns="http://www.w3.org/2000/svg" overflow="hidden"><defs><symbol id="icon-best-place" viewBox="0 0 32 32"><path fill="#603322" d="M32 16c0 8.837-7.163 16-16 16S0 24.837 0 16 7.163 0 16 0s16 7.163 16 16z"/><path fill="#fafafa" d="M16.2 8c-3.341 0-6.058 2.651-6.058 5.91 0 1.073.493 2.227.514 2.276a9.5 9.5 0 00.7 1.278l4.154 6.14c.17.252.422.396.69.396s.52-.144.69-.396l4.154-6.141a9.39 9.39 0 00.7-1.278c.021-.048.514-1.202.514-2.276 0-3.259-2.718-5.91-6.058-5.91zm4.888 7.916a8.672 8.672 0 01-.638 1.165l-4.154 6.141c-.082.121-.108.121-.19 0l-4.154-6.141a8.672 8.672 0 01-.638-1.165c-.006-.014-.458-1.076-.458-2.005 0-2.876 2.398-5.215 5.346-5.215s5.345 2.339 5.345 5.215c0 .93-.453 1.995-.458 2.006z"/><path fill="#fafafa" d="M16.2 10.782c-1.769 0-3.207 1.404-3.207 3.129s1.439 3.129 3.207 3.129c1.769 0 3.207-1.404 3.207-3.129s-1.439-3.129-3.207-3.129zm0 5.563c-1.375 0-2.495-1.092-2.495-2.434s1.119-2.434 2.495-2.434c1.375 0 2.495 1.092 2.495 2.434s-1.119 2.434-2.495 2.434z"/></symbol><symbol id="icon-best-quality" viewBox="0 0 32 32"><path fill="#603322" d="M32 16c0 8.837-7.163 16-16 16S0 24.837 0 16 7.163 0 16 0s16 7.163 16 16z"/><path fill="#fafafa" d="M19.57 18.312c.084-.033.171-.059.262-.074a1.757 1.757 0 001.454-1.991c-.065-.325.04-.771.353-1.087a1.762 1.762 0 00-.006-2.471 1.26 1.26 0 01-.347-1.078 1.76 1.76 0 00-1.456-1.996 1.26 1.26 0 01-.913-.664 1.758 1.758 0 00-2.352-.763 1.255 1.255 0 01-1.131-.001 1.76 1.76 0 00-2.35.763c-.181.352-.522.6-.918.665a1.761 1.761 0 00-1.45 2.002c.06.39-.071.79-.353 1.076a1.762 1.762 0 00.006 2.473c.277.281.407.681.347 1.076a1.759 1.759 0 001.453 1.996c.09.015.178.04.261.073l-2.266 3.782a.25.25 0 00.283.369l1.832-.52.406 1.86a.25.25 0 00.459.075l2.584-4.314c.179-.04.366-.04.545 0l2.584 4.314a.25.25 0 00.459-.075l.406-1.86 1.832.52a.25.25 0 00.283-.369l-2.266-3.782zm-6.532 4.768l-.328-1.504a.25.25 0 00-.313-.187l-1.48.42 1.931-3.223c.093.092.174.198.235.317a1.757 1.757 0 001.908.916l-1.953 3.261zm2.171-3.859a1.255 1.255 0 01-1.68-.547 1.76 1.76 0 00-1.28-.931 1.258 1.258 0 01-1.038-1.432 1.766 1.766 0 00-.493-1.504 1.26 1.26 0 01.006-1.768c.388-.392.57-.952.486-1.505a1.259 1.259 0 011.042-1.427 1.762 1.762 0 001.277-.929 1.257 1.257 0 011.682-.545 1.76 1.76 0 001.582-.001 1.258 1.258 0 011.68.546c.253.492.731.84 1.282.93.675.11 1.14.75 1.036 1.433a1.762 1.762 0 00.492 1.503 1.26 1.26 0 01-.006 1.77c-.67.679-.479 1.55-.485 1.502a1.259 1.259 0 01-1.039 1.427 1.761 1.761 0 00-1.28.93 1.256 1.256 0 01-1.681.546 1.762 1.762 0 00-1.582 0zm4.393 2.168a.25.25 0 00-.313.187l-.328 1.504-1.954-3.262a1.758 1.758 0 001.909-.915 1.25 1.25 0 01.235-.317l1.931 3.223-1.48-.42z"/><path fill="#fafafa" d="M19.68 13.926c0-2.029-1.651-3.68-3.68-3.68s-3.68 1.651-3.68 3.68c0 2.03 1.651 3.682 3.68 3.682s3.68-1.652 3.68-3.682zM16 17.109a3.185 3.185 0 01-3.18-3.182c0-1.753 1.426-3.18 3.18-3.18s3.18 1.426 3.18 3.18A3.184 3.184 0 0116 17.109z"/><path fill="#fafafa" d="M17.062 12.82l-1.685 1.685-.439-.439a.25.25 0 10-.354.354l.616.616a.25.25 0 00.354 0l1.862-1.862a.25.25 0 10-.353-.354z"/></symbol><symbol id="icon-event-space" viewBox="0 0 32 32"><path fill="#603322" d="M16 0C7.16 0 0 7.16 0 16s7.16 16 16 16 16-7.16 16-16S24.84 0 16 0zm-.16 10.52l-.52 3-.44 2.48c-.08.48-.28.92-.6 1.28-.04.08-.16.12-.24.12s-.12-.04-.2-.08a.308.308 0 01-.04-.4c.24-.28.4-.64.48-1l.4-2.16c-.24-.04-.4-.12-.52-.2-.2-.08-.32-.16-.64-.16s-.48.04-.64.16c-.2.08-.44.2-.92.2-.44 0-.68-.12-.88-.24-.12-.08-.24-.12-.36-.16l-.56 1.48c-.2.56-.16 1.16.12 1.72.28.52.76.92 1.36 1.08.4.12.84.08 1.24-.04.16-.04.32.04.4.2.04.16-.04.32-.2.4-.28.08-.6.16-.88.16-.16 0-.28 0-.44-.04l-1.08 3.96 1 .28c.24.08.44.2.6.44.12.2.16.48.08.72-.12.44-.52.72-.92.72-.08 0-.16 0-.24-.04l-2.6-.8c-.24-.08-.44-.24-.6-.44s-.16-.48-.08-.72c.12-.52.64-.8 1.16-.68l1 .24 1.08-3.96c-.64-.24-1.16-.72-1.44-1.28a2.81 2.81 0 01-.16-2.2l.64-1.68v-.04l.48-1.24c.04-.16.24-.24.4-.16.16.04.24.24.16.4l-.36.92c.2.04.32.12.44.2.2.08.32.16.64.16s.48-.04.64-.12c.2-.08.44-.2.92-.2.44 0 .68.12.88.24.12.08.2.12.36.16l.48-2.72c0-.04 0-.08-.08-.12l-3-.8c-.04 0-.12 0-.12.08l-.36 1c-.04.16-.24.24-.4.16-.16-.04-.24-.24-.2-.4l.36-1c.12-.36.48-.52.84-.44l3 .8c.4.04.64.4.56.76zm8.12 11.44c-.12.2-.32.36-.6.44l-2.56.68c-.08.04-.16.04-.24.04-.4 0-.8-.28-.92-.72-.08-.24-.04-.48.08-.72s.32-.36.6-.44l1-.24-1.08-3.96c-.16 0-.28.04-.4.04-.52 0-1.04-.16-1.48-.44-.64-.4-1.08-1.08-1.24-1.84l-.96-5.48a.68.68 0 01.52-.8l3-.8c.36-.08.72.08.84.44l1.36 3.68c.04.16 0 .32-.16.4a.38.38 0 01-.4-.16l-.2-.52c-.2.08-.4.08-.56.08-.2 0-.36 0-.64.16s-.36.28-.48.44c-.12.2-.28.4-.68.64s-.68.24-.88.24c-.12 0-.24 0-.4.04l.28 1.56c.12.6.44 1.12.96 1.44s1.12.4 1.72.28c.6-.16 1.08-.56 1.36-1.08s.32-1.12.12-1.72l-.12-.32c-.04-.16.04-.32.2-.4.16-.04.32.04.4.16l.12.32c.28.72.2 1.52-.16 2.2-.32.6-.84 1.04-1.44 1.28L22 20.84l1-.28c.52-.12 1.04.16 1.16.68-.04.24-.08.48-.2.72z"/><path fill="#603322" d="M18.44 12.32c.28-.16.36-.28.48-.44.12-.2.28-.4.68-.64.4-.2.68-.24.88-.24.12 0 .24 0 .36-.04l-.96-2.6c0-.04-.08-.08-.12-.04l-3 .8c-.04 0-.08.08-.08.12l.6 3.32c.2-.04.32-.04.48-.08.24-.04.4-.04.68-.16zm4.72 8.8h-.08l-1.28.36-1.28.32c-.08.04-.16.08-.2.16s-.08.16-.04.28c.04.2.24.28.44.24l2.56-.68c.08-.04.16-.08.2-.16s.08-.16.04-.28c-.08-.12-.24-.24-.36-.24zm-1.4.36zm-11.56 1.2l-1.28-.32c-.2-.04-.4.04-.44.24-.04.08 0 .16.04.24s.12.16.2.16l2.56.68c.2.04.4-.04.44-.24.04-.08 0-.16-.04-.24s-.12-.16-.2-.16l-1.28-.36z"/><path fill="#fafafa" d="M15.32 9.72l-3-.8c-.36-.08-.72.08-.84.44l-.36 1c-.04.16.04.32.2.4.16.04.32-.04.4-.16l.36-1c0-.04.08-.08.12-.08l3 .8c.04 0 .08.08.08.12l-.48 2.72c-.12-.04-.24-.08-.36-.16-.2-.12-.44-.24-.88-.24s-.68.08-.92.2c-.2.08-.32.16-.64.12-.32 0-.44-.08-.64-.16-.12-.08-.24-.12-.44-.2l.36-.92a.38.38 0 00-.16-.4c-.16-.04-.32 0-.4.16l-.48 1.24v.04l-.64 1.68c-.28.72-.2 1.52.16 2.2.32.6.84 1.04 1.44 1.28l-1.12 4-1-.24c-.52-.12-1.04.16-1.16.68-.08.24-.04.48.08.72s.32.4.6.44l2.56.68c.08 0 .16.04.24.04.4 0 .8-.28.92-.72.08-.24.04-.48-.08-.72s-.32-.4-.6-.44l-1-.28 1.08-3.96c.16.04.28.04.44.04.32 0 .6-.04.88-.16.16-.04.24-.24.2-.4s-.24-.24-.4-.2c-.4.12-.84.16-1.24.04-.6-.16-1.08-.56-1.36-1.08s-.32-1.16-.12-1.72l.56-1.48c.16.04.24.08.36.16.2.12.44.24.88.24s.68-.08.92-.2c.2-.08.32-.16.64-.16s.44.08.64.16c.12.08.32.16.52.2l-.4 2.16c-.08.36-.24.72-.48 1-.12.12-.08.32.04.4.04.04.12.08.2.08s.16-.04.24-.12c.32-.36.52-.8.6-1.28l.44-2.48.52-3c.12-.24-.12-.6-.48-.68zM11.52 23c.08.04.16.08.2.16s.08.16.04.24a.32.32 0 01-.44.24l-2.56-.68c-.08-.04-.16-.08-.2-.16s-.08-.16-.04-.24c.04-.2.24-.32.44-.24l1.28.32 1.28.36zm10.24-1.52zm1.12-.92l-1 .28-1.08-3.96c.64-.24 1.16-.72 1.44-1.28.36-.68.4-1.48.16-2.2l-.12-.32c-.04-.16-.24-.24-.4-.16-.16.04-.24.24-.2.4l.12.32c.2.56.16 1.16-.12 1.72-.28.52-.76.92-1.36 1.08-.6.16-1.2.08-1.72-.28-.52-.32-.84-.84-.96-1.44l-.28-1.56c.16-.04.24-.04.4-.04.24 0 .48 0 .88-.24s.56-.44.68-.64c.12-.16.2-.28.48-.44s.44-.16.64-.16c.16 0 .36 0 .56-.08l.2.52c.08.16.24.24.4.16.16-.04.24-.24.16-.4L20.4 8.16c-.12-.36-.48-.52-.84-.44l-3 .8c-.36.08-.56.44-.52.8l1.08 5.48c.12.76.6 1.4 1.24 1.84.44.28.96.44 1.48.44.16 0 .28 0 .4-.04L21.32 21l-1 .24c-.24.08-.44.24-.6.44-.12.2-.16.48-.08.72.12.44.52.72.92.72.08 0 .16 0 .24-.04l2.56-.68c.24-.08.44-.24.6-.44s.16-.48.08-.72c-.12-.52-.64-.8-1.16-.68zM16.76 9.2c0-.04 0-.08.08-.12l3-.8c.04 0 .12 0 .12.04l.96 2.6c-.12.04-.24.04-.36.04-.24 0-.48 0-.88.24-.4.2-.56.44-.68.64-.12.16-.2.28-.48.44s-.44.16-.64.16c-.12 0-.28 0-.48.08l-.64-3.32zm6.68 12.44c-.04.08-.12.12-.2.16l-2.56.68c-.2.04-.4-.08-.44-.24-.04-.08 0-.2.04-.28s.12-.16.2-.16l1.28-.32 1.28-.36h.08c.16 0 .32.12.36.24s.04.2-.04.28z"/></symbol><symbol id="icon-free-wifi" viewBox="0 0 32 32"><path fill="#603322" d="M32 16c0 8.837-7.163 16-16 16S0 24.837 0 16 7.163 0 16 0s16 7.163 16 16z"/><path fill="#fafafa" d="M8.161 14.261a.5.5 0 01-.028-.707A10.666 10.666 0 0116 10.107a10.666 10.666 0 017.867 3.447.5.5 0 01-.735.679c-1.833-1.986-4.432-3.125-7.133-3.125s-5.3 1.139-7.133 3.125a.5.5 0 01-.707.028zm12.695 2.235a.5.5 0 10.747-.665c-1.422-1.6-3.465-2.517-5.603-2.517s-4.181.918-5.603 2.517a.5.5 0 10.747.664c1.233-1.387 3.003-2.182 4.856-2.182s3.623.795 4.856 2.182zm-2.291 2.255a.5.5 0 10.779-.626c-.819-1.019-2.039-1.604-3.345-1.604s-2.525.585-3.345 1.604a.5.5 0 00.779.627c.629-.782 1.564-1.231 2.565-1.231s1.937.449 2.565 1.231zM16 19.727c.597 0 1.083.486 1.083 1.083s-.486 1.083-1.083 1.083-1.083-.486-1.083-1.083.486-1.083 1.083-1.083zm0 1c-.045 0-.083.038-.083.083s.038.083.083.083c.045 0 .083-.038.083-.083s-.038-.083-.083-.083z"/></symbol><symbol id="icon-natural-coffee" viewBox="0 0 32 32"><path fill="#603322" d="M32 16c0 8.837-7.163 16-16 16S0 24.837 0 16 7.163 0 16 0s16 7.163 16 16z"/><path fill="#fafafa" d="M13.374 23.272a3.2 3.2 0 001.604-.427c.845-.483 1.511-1.364 1.875-2.482.122-.378.209-.768.258-1.162.121.012.242.018.365.018.745 0 1.527-.215 2.296-.636.993-.543 1.873-1.383 2.544-2.429 1.516-2.362 1.558-5.167.099-6.668a3.188 3.188 0 00-.864-.633c-.967-.485-2.158-.47-3.353.043-1.177.505-2.255 1.453-3.035 2.668-.23.359-.431.736-.599 1.128-.683-.502-1.45-.792-2.236-.802a3.215 3.215 0 00-1.059.166c-1.026.343-1.856 1.197-2.336 2.406-.473 1.191-.562 2.623-.251 4.033.615 2.791 2.612 4.777 4.691 4.777zm8.849-13.25c.504.623.771 1.491.756 2.476-.017 1.122-.402 2.325-1.083 3.386-.626.975-1.443 1.757-2.363 2.26-.784.429-1.606.624-2.344.561a7.469 7.469 0 002.747-4.603 6.991 6.991 0 012.003-3.804l.284-.277zm-1.126-.263l.385-.376a2.609 2.609 0 01.393.28l-.285.278a7.485 7.485 0 00-2.146 4.076 6.968 6.968 0 01-2.28 4.06 7.485 7.485 0 00-.046-.611 7.472 7.472 0 001.977-3.904 6.948 6.948 0 012.003-3.804zm-5.513 2.075c1.383-2.155 3.689-3.268 5.411-2.674l-.247.242a7.446 7.446 0 00-2.146 4.076 6.96 6.96 0 01-1.584 3.355 4.958 4.958 0 00-.035-.167c-.331-1.504-1.071-2.787-2.016-3.644.168-.414.375-.812.617-1.188zm-3.016.968l.004-.397c.797.082 1.601.506 2.288 1.212.783.804 1.364 1.926 1.635 3.157.26 1.182.219 2.402-.117 3.434-.257.79-.677 1.444-1.206 1.892a7.474 7.474 0 00-1.322-5.195 6.952 6.952 0 01-1.282-4.033v-.07zm-.976.215l.005-.537.106-.026c.122-.027.245-.045.369-.055l-.004.398v.076a7.446 7.446 0 001.374 4.322 6.971 6.971 0 011.226 4.914l-.046.361c-.15.077-.307.141-.469.189l.034-.272c.039-.313.059-.627.059-.942a7.44 7.44 0 00-1.374-4.323 6.954 6.954 0 01-1.282-4.104zm-.497-.35l-.003.346a7.441 7.441 0 001.373 4.397 6.958 6.958 0 011.227 4.914l-.055.436c-.89.084-1.815-.272-2.626-1.016-.889-.816-1.542-2.008-1.839-3.356-.551-2.501.287-4.92 1.924-5.721z"/><path fill="#fafafa" d="M17.067 11.616a.25.25 0 00.17-.067c.105-.098.215-.192.328-.28a.254.254 0 00.085-.264.265.265 0 00-.044-.087.254.254 0 00-.264-.085.255.255 0 00-.087.044c-.123.097-.244.2-.359.307a.255.255 0 00-.074.128.247.247 0 00.103.262.254.254 0 00.141.043zm-1.277 1.535a.253.253 0 00.191.014.263.263 0 00.145-.126c.159-.32.351-.623.573-.904a.25.25 0 10-.392-.31c-.243.308-.453.64-.628.991a.248.248 0 00.113.335zm-4.837 7.763a.25.25 0 00.381-.325 5.08 5.08 0 01-.266-.339.25.25 0 00-.45.106.246.246 0 00.044.186c.092.127.19.252.292.372zm.617.618c.297.255.621.48.964.669a.254.254 0 00.19.022.252.252 0 00.179-.213.258.258 0 00-.129-.247 5.224 5.224 0 01-.879-.61c-.05-.043-.116-.064-.181-.058s-.127.036-.17.086c-.043.05-.064.115-.06.181s.035.127.085.17z"/></symbol><symbol id="icon-online-reservation" viewBox="0 0 32 32"><path fill="#603322" d="M32 16c0 8.837-7.163 16-16 16S0 24.837 0 16 7.163 0 16 0s16 7.163 16 16z"/><path fill="#fafafa" d="M22 10.25h-1.25V9.5c0-.275-.225-.5-.5-.5h-.5c-.275 0-.5.225-.5.5v.75H12.5V9.5c0-.275-.225-.5-.5-.5h-.5c-.275 0-.5.225-.5.5v.75H9.75c-.625 0-1.125.5-1.125 1.125V22c0 .625.5 1.125 1.125 1.125H22c.625 0 1.125-.5 1.125-1.125V11.375c0-.625-.5-1.125-1.125-1.125zm-1.75-.75v2h-.5v-2h.5zM12 9.5v2h-.5v-2h.5zM22.625 22c0 .35-.275.625-.625.625H9.75A.619.619 0 019.125 22v-8.625h13.5V22zm0-9.125h-13.5v-1.5c0-.35.275-.625.625-.625H11v.75c0 .275.225.5.5.5h.5c.275 0 .5-.225.5-.5v-.75h6.75v.75c0 .275.225.5.5.5h.5c.275 0 .5-.225.5-.5v-.75H22c.35 0 .625.275.625.625v1.5z"/><path fill="#fafafa" d="M17.125 14.5h-2.5a.25.25 0 00-.25.25v2.5c0 .138.113.25.25.25h2.5a.25.25 0 00.25-.25v-2.5a.25.25 0 00-.25-.25zm-.25 2.5h-2v-2h2v2zM13 14.5h-2.5a.25.25 0 00-.25.25v2.5c0 .138.112.25.25.25H13a.25.25 0 00.25-.25v-2.5a.25.25 0 00-.25-.25zm-.25 2.5h-2v-2h2v2zm8.5-2.5h-2.5a.25.25 0 00-.25.25v2.5c0 .138.112.25.25.25h2.5a.25.25 0 00.25-.25v-2.5a.25.25 0 00-.25-.25zM21 17h-2v-2h2v2zm-3.175 1.612c-.1-.1-.25-.1-.35 0l-.075.075v-.025a.251.251 0 00-.25-.25h-2.5a.25.25 0 00-.25.25v2.5c0 .138.112.25.25.25h2.5a.25.25 0 00.25-.25v-1.775l.425-.425c.1-.1.1-.25 0-.35zm-.925 2.3h-2v-.987l.8.812c.05.05.112.075.175.075s.125-.025.175-.075l.837-.837v1.012h.013zm0-1.725L15.875 20.2l-.7-.7a.25.25 0 00-.275-.05v-.525h2v.262zM13 18.5h-2.5a.25.25 0 00-.25.25v2.5c0 .138.112.25.25.25H13a.25.25 0 00.25-.25v-2.5a.25.25 0 00-.25-.25zm-.25 2.5h-2v-2h2v2zm9.2-2.3c-.1-.1-.25-.1-.35 0l-.1.1v-.05a.25.25 0 00-.25-.25h-2.5a.25.25 0 00-.25.25v2.5c0 .138.112.25.25.25h2.5a.25.25 0 00.25-.25V19.5l.45-.45c.1-.1.1-.25 0-.35zM21 21h-2v-1.012l.837.837c.05.05.113.075.175.075s.125-.025.175-.075l.812-.825v1zm0-1.7l-.988.988-.712-.7a.23.23 0 00-.3-.037v-.55h2v.3z"/></symbol><symbol id="icon-back-to-top" viewBox="0 0 32 32"><path d="M16 .941C24.317.941 31.059 7.683 31.059 16S24.317 31.059 16 31.059.941 24.317.941 16 7.683.941 16 .941z"/><path fill="#fffbf3" d="M16 7.634l.333-.333a.47.47 0 00-.666 0l.333.333zm-.471 16.732a.471.471 0 00.942 0h-.941zm6.831-9.706a.47.47 0 00.666-.665l-.666.665zm-13.386-.666a.47.47 0 10.665.665l-.665-.665zm6.555-6.36v16.732h.941V7.634h-.941zm7.497 6.36l-6.693-6.693-.666.665 6.693 6.693.666-.665zm-7.359-6.693l-6.693 6.693.665.665 6.693-6.693-.666-.665zM16 1.412c8.057 0 14.588 6.531 14.588 14.588h.941C31.529 7.423 24.576.471 16 .471v.941zM30.588 16c0 8.057-6.531 14.588-14.588 14.588v.941c8.577 0 15.529-6.953 15.529-15.529h-.941zM16 30.588C7.943 30.588 1.412 24.057 1.412 16H.471c0 8.577 6.953 15.529 15.529 15.529v-.941zM1.412 16C1.412 7.943 7.943 1.412 16 1.412V.471C7.423.471.471 7.424.471 16h.941z"/></symbol></defs></svg>