<svg width="34" height="34" fill="none" xmlns="http://www.w3.org/2000/svg"><path d="M33 17c0 8.837-7.163 16-16 16S1 25.837 1 17 8.163 1 17 1s16 7.163 16 16Z" fill="#FCE5B8"/><path d="m25.889 17 .353.354a.5.5 0 0 0 0-.708L25.89 17ZM8.11 16.5a.5.5 0 0 0 0 1v-1Zm10.313 7.258a.5.5 0 0 0 .707.707l-.707-.707Zm.707-14.223a.5.5 0 0 0-.707.707l.707-.707ZM25.89 16.5H8.11v1H25.89v-1Zm-6.758 7.965 7.111-7.111-.707-.708-7.11 7.112.706.707Zm7.111-7.819-7.11-7.11-.708.706 7.111 7.112.707-.708ZM32.5 17c0 8.56-6.94 15.5-15.5 15.5v1c9.113 0 16.5-7.387 16.5-16.5h-1ZM17 32.5C8.44 32.5 1.5 25.56 1.5 17h-1c0 9.113 7.387 16.5 16.5 16.5v-1ZM1.5 17C1.5 8.44 8.44 1.5 17 1.5v-1C7.887.5.5 7.887.5 17h1ZM17 1.5c8.56 0 15.5 6.94 15.5 15.5h1C33.5 7.887 26.113.5 17 .5v1Z" fill="#FFFBF3"/></svg>