<svg xmlns="http://www.w3.org/2000/svg" width="18" height="18" fill="none"><path fill="#969595" d="M1 9a8 8 0 1 1 16 0A8 8 0 0 1 1 9Z"/><path fill="#FFFBF3" d="m4.556 9-.354-.354a.5.5 0 0 0 0 .708L4.556 9Zm8.888.5a.5.5 0 1 0 0-1v1Zm-4.98-3.702a.5.5 0 1 0-.706-.707l.707.707Zm-.706 7.111a.5.5 0 1 0 .707-.707l-.707.707ZM4.556 9.5h8.888v-1H4.556v1Zm3.202-4.41L4.202 8.647l.707.708 3.556-3.556-.707-.707ZM4.202 9.355l3.556 3.555.707-.707-3.556-3.556-.707.708ZM1.5 9A7.5 7.5 0 0 1 9 1.5v-1A8.5 8.5 0 0 0 .5 9h1ZM9 1.5A7.5 7.5 0 0 1 16.5 9h1A8.5 8.5 0 0 0 9 .5v1ZM16.5 9A7.5 7.5 0 0 1 9 16.5v1A8.5 8.5 0 0 0 17.5 9h-1ZM9 16.5A7.5 7.5 0 0 1 1.5 9h-1A8.5 8.5 0 0 0 9 17.5v-1Z"/></svg>