<svg xmlns="http://www.w3.org/2000/svg" width="18" height="18" fill="none"><path fill="#603322" d="M17 9A8 8 0 1 1 1 9a8 8 0 0 1 16 0Z"/><path fill="#FFFBF3" d="m13.444 9 .354.354a.5.5 0 0 0 0-.708L13.444 9Zm-8.888-.5a.5.5 0 1 0 0 1v-1Zm4.98 3.702a.5.5 0 1 0 .706.707l-.707-.707Zm.706-7.111a.5.5 0 1 0-.707.707l.707-.707ZM13.444 8.5H4.556v1h8.888v-1Zm-3.202 4.41 3.556-3.556-.707-.708-3.556 3.556.707.707Zm3.556-4.264-3.556-3.555-.707.707 3.556 3.556.707-.708ZM16.5 9A7.5 7.5 0 0 1 9 16.5v1A8.5 8.5 0 0 0 17.5 9h-1ZM9 16.5A7.5 7.5 0 0 1 1.5 9h-1A8.5 8.5 0 0 0 9 17.5v-1ZM1.5 9A7.5 7.5 0 0 1 9 1.5v-1A8.5 8.5 0 0 0 .5 9h1ZM9 1.5A7.5 7.5 0 0 1 16.5 9h1A8.5 8.5 0 0 0 9 .5v1Z"/></svg>