<svg width="630" height="572" viewBox="0 0 630 572" fill="none" xmlns="http://www.w3.org/2000/svg">
<path d="M204.206 153.723C196.321 147.94 187.965 150.685 182.171 158.014C175.123 166.929 177.952 172.332 166.03 175.097C156.226 177.348 151.704 175.677 146.29 185.162C141.191 193.992 142.504 196.511 133.128 201.262C124.057 205.853 119.343 207.902 113.378 216.403C107.033 225.463 103.114 226.924 93.8826 232.084C85.6813 236.668 79.5165 241.429 75.462 249.795C70.3616 260.312 69.6397 261.075 59.3333 266.835C50.4941 271.776 45.1536 277.285 42.3513 287.57C40.7081 293.595 40.0938 307.751 44.1937 308.689L52.7185 319.34C62.735 337.11 79.1946 342.058 97.5104 332.825C114.936 324.054 125.556 308.455 139.313 295.024C151.316 283.292 164.074 274.235 173.725 259.429C183.62 244.33 211.422 250.7 224.663 238.635C250.204 215.389 223.549 167.894 204.206 153.723Z" fill="#F7A037"/>
<path d="M79.5684 323.599C79.5684 323.599 134.406 456.304 152.781 463.781C186.026 477.298 616.883 296.84 616.883 296.84L525.097 134.941L79.5684 323.599Z" fill="#FFDE94"/>
<path d="M79.5222 323.625L525.051 134.966L517.284 118.761L71.2016 306.449L79.5222 323.625Z" fill="#DD3631"/>
<path d="M71.184 306.459C71.184 306.459 90.3799 276.462 113.951 254.294C137.522 232.125 218.06 171.704 218.06 171.704L517.266 118.771L71.184 306.459Z" fill="#DB7067"/>
<path d="M100.054 387.936C107.701 387.13 116.409 379.153 124.75 376.979C134.439 374.457 145.022 375.12 154.937 373.022C181.415 367.395 201.945 348.708 225.935 336.83C251.177 324.347 280.278 317.529 307.441 310.215C334.147 303.026 358.378 290.917 385.248 284.664C411.272 278.609 432.456 263.061 457.39 255.247C475.387 249.637 490.138 237.684 507.853 230.629C516.246 227.265 526.476 227.957 534.626 223.389C542.481 218.999 546.459 210.796 555.494 207.874C563.477 205.338 570.551 209.564 572.623 220.138C574.694 230.713 567.64 231.487 558.761 234.345C533.197 242.57 519.376 266.286 496.599 279.328C473.289 292.656 444.031 292.733 418.5 299.864C395.175 306.383 375.404 318.917 353.373 328.565C333.519 337.271 310.761 340.184 290.163 347.153C269.921 354.03 251 361.282 231.776 370.795C213.716 379.694 194.702 380.874 175.876 387.976C158.104 394.693 144.546 408.609 126.911 415.273C111.224 421.207 96.0954 406.187 97.3813 394.537L100.054 387.936Z" fill="#DD3631"/>
<path d="M56.3431 289.065C32.2619 298.34 39.5136 304.895 60.9563 345.567C82.3989 386.24 123.092 495.78 148.016 492.122C172.94 488.463 629.408 319.356 629.408 319.356L616.827 296.848C616.827 296.848 175.579 470.269 159.139 461.483C142.699 452.697 98.3134 350.352 86.7329 327.344C75.1525 304.337 71.1486 283.373 56.3431 289.065Z" fill="#F5892F"/>
<path d="M236.694 222.031C240.989 225.694 248.631 218.696 253.007 217.517C259.571 215.738 264.578 213.142 270.783 210.248C274.132 208.687 273.78 209.769 277.536 210.648C280.835 211.458 283.832 210.358 286.894 209.375C292.821 207.462 298.854 205.824 304.586 203.326C310.501 200.749 315.884 198.206 321.951 195.88C329.34 192.945 337.33 189.843 343.167 184.26C350.388 177.366 348.141 169.879 337.503 170.491C325.108 171.188 315.098 176.772 303.602 181.068C295.83 184.002 287.59 187.148 279.251 186.714C272.482 186.372 265.26 187.359 259.816 191.849C253.811 196.724 251.281 203.795 247.724 210.269C245.644 214.015 242.736 216.322 240.02 219.359C240.239 219.236 240.176 218.697 240.222 218.265L236.694 222.031Z" fill="#C92F2F"/>
<path d="M228.225 129.21C219.884 125.776 210.141 134.535 209.794 142.131C199.773 142.518 200.753 150.283 199.149 156.872C190.399 157.457 189.495 166.43 190.94 173.145C187.08 173.963 185.255 181.525 190.16 183.603C184.118 191.13 189.676 204.133 199.239 206.693C198.116 215.382 211.501 224.608 220.184 219.515C227.443 230.491 245.275 224.458 246.781 213.116C256.616 210.812 263.253 192.476 253.851 186.824C260.726 183.567 262.196 178.045 261.728 170.832C261.287 163.903 261.662 153.79 258.472 146.927C256.194 142.017 252.612 141.472 249.831 138.23C247.604 135.636 248.312 132.538 245.399 130.087C241.757 127.016 231.803 125.704 228.225 129.21Z" fill="#DD3631"/>
<path d="M220.779 141.887C220.868 145.426 218.138 152.931 213.017 150.615C212.618 155.443 212.076 160.123 205.856 160.334C207.146 164.995 206.408 170.095 199.771 169.261C201.828 171.209 200.28 175.136 196.907 175.263C196.357 176.419 197.179 176.307 197.808 176.876L197.969 175.303C201.205 175.528 201.89 178.744 201.442 181.387C210.933 184.31 205.367 171.634 214.579 174.271C213.354 166.453 218.271 165.343 225.297 164.262C223.718 157.586 227.088 155.056 232.996 151.933C229.606 148.542 228.978 144.038 232.831 140.939C228.892 139.947 223.918 146.71 220.779 141.887Z" fill="#AF2828"/>
<path d="M240.658 129.138C250.326 131.735 246.233 138.256 246.482 145.377C250.408 145.981 253.741 144.177 254.655 148.402C255.235 151.044 251.831 154.561 251.042 156.916C260.507 157.438 259.699 165.364 253.736 169.822C257.333 171.614 262.595 174.545 260.714 179.077C259.265 182.625 253.653 182.533 252.069 185.99C254.777 187.155 257.976 191.06 256.365 193.934C254.618 197.099 248.352 194.574 247.376 197.236C246.779 198.885 251.818 201.331 251.337 203.98C250.592 208.104 245.359 207.728 241.873 207.332C243.912 212.735 242.949 220.64 237.405 222.639L236.79 223.102C242.666 221.611 247.124 217.218 246.063 211.448C251.815 213.95 262.172 208.173 256.729 202.03C265.434 199.652 266.04 190.487 260.781 184.481C269.014 182.905 271.982 172.767 263.471 169.224C269.288 163.09 270.365 150.576 259.208 149.23C262.195 145.886 259.226 138.457 253.86 140.26C258.377 132.401 246.996 129.35 240.658 129.138Z" fill="#AF2828"/>
<path d="M330.749 139.942C329.198 132.138 317.37 129.935 311.296 133.725C305.882 126.777 300.326 131.665 294.365 134.052C289.46 128.123 281.997 132.294 277.491 136.942C274.888 134.617 268.072 137.422 268.923 142.005C259.979 141.731 252.69 152.718 255.552 160.877C248.216 164.762 247.815 179.278 256.204 182.733C251.331 193.829 265.121 203.307 274.727 198.284C281.536 204.046 299.229 198.941 298.855 189.199C304.889 192.356 309.951 190.436 315.346 186.224C320.514 182.14 328.616 177.013 332.351 171.051C335.019 166.773 333.621 163.93 334.71 160.164C335.595 157.17 338.369 156.014 338.852 152.599C339.356 148.407 335.309 140.61 330.749 139.942Z" fill="#DD3631"/>
<path d="M317.021 141.421C314.3 143.42 307.083 145.444 306.26 140.57C302.292 142.884 298.351 144.991 295.035 140.686C292.048 144.114 287.7 146.328 284.97 141.145C284.492 143.648 280.646 144.662 278.823 142.321C277.675 142.556 278.156 143.076 278.042 143.834L279.345 143.105C280.822 145.533 278.667 147.754 276.362 148.851C278.915 157.207 285.98 146.417 288.606 154.409C294.129 149.313 297.451 152.24 301.844 156.697C306.248 151.975 309.938 153.034 315.383 155.564C316.314 151.324 319.514 148.47 323.891 149.54C322.709 146.183 314.903 146.276 317.021 141.421Z" fill="#AF2828"/>
<path d="M335.281 148.412C338.178 156.719 331.008 157.307 325.565 161.306C327.069 164.424 330.225 165.877 327.354 168.785C325.587 170.61 321.104 170.078 318.877 170.737C323.307 177.828 316.719 181.511 310.172 179.597C310.611 183.143 311.006 188.471 306.482 189.6C302.975 190.472 300.194 186.418 296.726 187.124C297.2 189.682 295.806 194.037 292.709 194.465C289.369 194.908 288.133 189.081 285.569 189.821C283.973 190.282 284.599 195.147 282.318 196.266C278.718 197.956 276.349 194.017 274.888 191.318C271.706 195.68 265.036 199.217 260.665 196.362L259.983 196.169C264.131 199.567 269.833 200.375 273.791 196.524C274.762 201.961 284.602 206.279 286.579 199.075C292.869 204.015 300.331 199.521 302.332 192.53C307.76 197.557 317.188 194.225 315.599 186.311C323.335 187.165 333.651 181.207 329.026 172.526C333.154 172.85 337.461 166.712 333.293 163.899C341.754 162.817 338.332 153.057 335.281 148.412Z" fill="#AF2828"/>
<path d="M190.259 190.903C190.842 193.4 191.854 195.776 193.251 197.925C193.493 198.358 193.896 198.677 194.373 198.812C194.85 198.947 195.361 198.887 195.794 198.645C196.226 198.403 196.545 197.999 196.68 197.522C196.815 197.045 196.755 196.535 196.513 196.102C195.292 194.239 194.403 192.179 193.886 190.012C193.496 187.623 189.874 188.547 190.233 190.858L190.259 190.903Z" fill="#DB7067"/>
<path d="M201.012 206.443C202.196 209.202 204.624 212.904 207.773 213.596C210.113 214.081 211.164 210.504 208.784 209.992C206.618 209.541 205.055 206.444 204.275 204.62C203.322 202.402 200.061 204.248 201.012 206.443Z" fill="#DB7067"/>
<path d="M201.15 191.369C202.336 193.493 203.601 196.29 205.805 197.558C208.008 198.826 209.77 195.58 207.704 194.344C207.063 193.834 206.538 193.194 206.164 192.466C205.55 191.517 205.004 190.519 204.448 189.526C203.277 187.43 200.006 189.258 201.186 191.349L201.15 191.369Z" fill="#DB7067"/>
<path d="M213.036 184.307C214.167 186.169 215.461 187.927 216.905 189.559C218.466 191.39 221.121 188.758 219.539 186.891C218.318 185.509 217.224 184.018 216.273 182.438C215.096 180.333 211.807 182.172 213.011 184.261L213.036 184.307Z" fill="#DB7067"/>
<path d="M215.015 205.457C216.746 208.286 219.293 210.523 222.322 211.874C224.473 212.92 226.386 209.71 224.215 208.651C221.758 207.624 219.679 205.862 218.262 203.607C217.045 201.536 213.778 203.351 215 205.43L215.015 205.457Z" fill="#DB7067"/>
<path d="M229.134 219.631C230.124 219.884 231.131 220.069 232.146 220.184L233.434 220.349C233.498 220.313 234.032 220.434 233.489 220.318L233.838 220.386C236.165 220.976 237.165 217.331 234.85 216.783C233.172 216.37 231.754 216.444 230.131 216C227.807 215.374 226.781 218.973 229.114 219.595L229.134 219.631Z" fill="#DB7067"/>
<path d="M265.749 188.234C264.83 186.766 264.19 185.142 263.86 183.442C263.739 182.961 263.433 182.547 263.009 182.289C262.586 182.032 262.078 181.951 261.595 182.064C261.119 182.193 260.71 182.5 260.453 182.921C260.197 183.343 260.113 183.847 260.218 184.329C260.625 186.359 261.393 188.299 262.487 190.057C262.729 190.49 263.132 190.809 263.609 190.944C264.086 191.079 264.597 191.019 265.03 190.777C265.462 190.535 265.781 190.131 265.916 189.654C266.051 189.177 265.991 188.666 265.749 188.234Z" fill="#DB7067"/>
<path d="M259.85 171.69C258.015 170.097 258.212 167.26 258.596 165.06C258.981 162.86 255.407 161.664 255.002 164.043C254.401 167.525 254.284 171.788 257.168 174.337C258.974 175.899 261.653 173.29 259.803 171.669L259.85 171.69Z" fill="#DB7067"/>
<path d="M262.058 156.703C262.436 155.475 263.191 153.809 264.505 153.314C264.98 153.186 265.387 152.879 265.642 152.459C265.897 152.038 265.98 151.534 265.873 151.054C265.815 150.815 265.711 150.59 265.566 150.392C265.421 150.194 265.238 150.026 265.028 149.899C264.818 149.772 264.585 149.687 264.342 149.651C264.099 149.614 263.851 149.626 263.613 149.686C262.344 150.212 261.217 151.03 260.323 152.072C259.428 153.114 258.791 154.352 258.463 155.686C257.757 157.995 261.36 159.006 262.058 156.703Z" fill="#DB7067"/>
<path d="M271.808 170.723C270.886 169.073 271.513 167.456 272.309 165.863C273.388 163.728 270.173 161.806 269.094 163.964C267.673 166.791 266.999 169.608 268.546 172.546C269.668 174.682 272.925 172.849 271.808 170.723Z" fill="#DB7067"/>
<path d="M283.29 162.295C283.382 162.866 283.384 161.693 283.265 162.25C283.283 162.15 283.308 162.052 283.34 161.957C283.477 161.474 283.168 162.268 283.389 161.81L283.554 161.526C283.554 161.526 283.896 161.048 283.658 161.348C283.848 161.106 284.058 160.881 284.286 160.675C284.638 160.324 284.837 159.849 284.84 159.352C284.842 158.855 284.648 158.378 284.299 158.024C283.947 157.679 283.475 157.484 282.982 157.481C282.489 157.477 282.015 157.665 281.658 158.006C280.918 158.636 280.346 159.44 279.995 160.347C279.643 161.253 279.523 162.233 279.644 163.197C279.763 163.679 280.068 164.095 280.493 164.353C280.917 164.611 281.426 164.691 281.909 164.574C282.385 164.445 282.793 164.137 283.047 163.714C283.301 163.291 283.382 162.787 283.272 162.306L283.29 162.295Z" fill="#DB7067"/>
<path d="M281.663 184.481C281.209 183.516 281.132 182.416 281.447 181.397C282.068 179.064 278.474 178.047 277.852 180.38C277.282 182.353 277.478 184.47 278.401 186.304C279.523 188.44 282.771 186.612 281.663 184.481Z" fill="#DB7067"/>
<path d="M294.166 183.915C293.937 183.505 293.708 183.095 293.478 182.685C293.249 182.275 293.588 183.03 293.397 182.431C293.31 182.16 293.24 181.884 293.186 181.605C293.074 181.12 292.773 180.7 292.352 180.437C291.93 180.174 291.42 180.089 290.936 180.201C290.452 180.313 290.032 180.613 289.768 181.035C289.505 181.457 289.42 181.966 289.533 182.451C289.798 183.599 290.243 184.698 290.851 185.708C291.093 186.141 291.497 186.46 291.973 186.594C292.45 186.729 292.961 186.669 293.394 186.427C293.827 186.186 294.145 185.782 294.28 185.305C294.415 184.828 294.355 184.317 294.113 183.885L294.166 183.915Z" fill="#DB7067"/>
<path d="M291.699 164.544L292.563 161.489C292.64 161.251 292.667 160.999 292.644 160.749C292.621 160.5 292.549 160.257 292.43 160.036C292.311 159.815 292.149 159.621 291.954 159.464C291.759 159.307 291.534 159.191 291.292 159.122C291.051 159.054 290.798 159.035 290.55 159.066C290.301 159.098 290.061 159.179 289.844 159.305C289.628 159.431 289.439 159.599 289.288 159.8C289.138 160 289.029 160.229 288.969 160.473L288.1 163.518C288.033 163.754 288.013 164.001 288.041 164.246C288.069 164.49 288.145 164.726 288.264 164.941C288.384 165.155 288.545 165.344 288.737 165.497C288.93 165.65 289.15 165.763 289.387 165.83C289.623 165.898 289.87 165.918 290.115 165.89C290.359 165.862 290.595 165.786 290.81 165.666C291.024 165.547 291.213 165.386 291.366 165.193C291.519 165.001 291.632 164.78 291.699 164.544Z" fill="#DB7067"/>
<path d="M220.329 175.315C221.591 176.139 222.805 177.034 223.967 177.993C224.395 178.245 224.904 178.316 225.384 178.191C225.864 178.066 226.275 177.756 226.526 177.329C226.777 176.901 226.848 176.392 226.723 175.912C226.599 175.432 226.289 175.021 225.861 174.77C224.701 173.808 223.486 172.914 222.223 172.092C220.114 170.95 218.201 174.16 220.329 175.315Z" fill="#DB7067"/>
<path d="M228.62 200.567C229.786 201.604 231.148 202.394 232.626 202.891C234.104 203.389 235.668 203.583 237.222 203.461C237.714 203.458 238.186 203.266 238.541 202.926C238.896 202.585 239.106 202.121 239.129 201.63C239.136 201.135 238.948 200.657 238.605 200.3C238.263 199.943 237.793 199.736 237.298 199.723C236.228 199.85 235.143 199.757 234.11 199.45C233.077 199.143 232.117 198.629 231.29 197.939C229.488 196.363 226.808 198.973 228.62 200.567Z" fill="#DB7067"/>
</svg>
